<mxfile host="Electron" modified="2023-05-21T18:11:58.720Z" agent="Mozilla/5.0 (Windows NT 10.0; Win64; x64) AppleWebKit/537.36 (KHTML, like Gecko) draw.io/21.2.8 Chrome/112.0.5615.165 Electron/24.2.0 Safari/537.36" etag="slzA-IgcwHz05kOce7jX" version="21.2.8" type="device">
  <diagram name="Page-1" id="2YBvvXClWsGukQMizWep">
    <mxGraphModel dx="1909" dy="1144" grid="1" gridSize="10" guides="1" tooltips="1" connect="1" arrows="1" fold="1" page="1" pageScale="1" pageWidth="5000" pageHeight="5000" math="0" shadow="0">
      <root>
        <mxCell id="0" />
        <mxCell id="1" parent="0" />
        <mxCell id="aM9ryv3xv72pqoxQDRHE-5" value="UserService" style="shape=umlLifeline;perimeter=lifelinePerimeter;whiteSpace=wrap;html=1;container=0;dropTarget=0;collapsible=0;recursiveResize=0;outlineConnect=0;portConstraint=eastwest;newEdgeStyle={&quot;edgeStyle&quot;:&quot;elbowEdgeStyle&quot;,&quot;elbow&quot;:&quot;vertical&quot;,&quot;curved&quot;:0,&quot;rounded&quot;:0};" parent="1" vertex="1">
          <mxGeometry x="560" y="30" width="100" height="6290" as="geometry" />
        </mxCell>
        <mxCell id="SLl3Hjy-PF9EofsxqTcr-63" value="" style="html=1;points=[];perimeter=orthogonalPerimeter;outlineConnect=0;targetShapes=umlLifeline;portConstraint=eastwest;newEdgeStyle={&quot;edgeStyle&quot;:&quot;elbowEdgeStyle&quot;,&quot;elbow&quot;:&quot;vertical&quot;,&quot;curved&quot;:0,&quot;rounded&quot;:0};" parent="aM9ryv3xv72pqoxQDRHE-5" vertex="1">
          <mxGeometry x="45" y="100" width="10" height="250" as="geometry" />
        </mxCell>
        <mxCell id="SLl3Hjy-PF9EofsxqTcr-104" value="" style="html=1;points=[];perimeter=orthogonalPerimeter;outlineConnect=0;targetShapes=umlLifeline;portConstraint=eastwest;newEdgeStyle={&quot;edgeStyle&quot;:&quot;elbowEdgeStyle&quot;,&quot;elbow&quot;:&quot;vertical&quot;,&quot;curved&quot;:0,&quot;rounded&quot;:0};" parent="aM9ryv3xv72pqoxQDRHE-5" vertex="1">
          <mxGeometry x="47.5" y="930" width="10" height="310" as="geometry" />
        </mxCell>
        <mxCell id="EvKE3HRrCoH5kTLzTVeY-63" value="" style="html=1;points=[];perimeter=orthogonalPerimeter;outlineConnect=0;targetShapes=umlLifeline;portConstraint=eastwest;newEdgeStyle={&quot;edgeStyle&quot;:&quot;elbowEdgeStyle&quot;,&quot;elbow&quot;:&quot;vertical&quot;,&quot;curved&quot;:0,&quot;rounded&quot;:0};" vertex="1" parent="aM9ryv3xv72pqoxQDRHE-5">
          <mxGeometry x="47.5" y="4230" width="10" height="250" as="geometry" />
        </mxCell>
        <mxCell id="SLl3Hjy-PF9EofsxqTcr-141" value="" style="html=1;points=[];perimeter=orthogonalPerimeter;outlineConnect=0;targetShapes=umlLifeline;portConstraint=eastwest;newEdgeStyle={&quot;edgeStyle&quot;:&quot;elbowEdgeStyle&quot;,&quot;elbow&quot;:&quot;vertical&quot;,&quot;curved&quot;:0,&quot;rounded&quot;:0};" parent="aM9ryv3xv72pqoxQDRHE-5" vertex="1">
          <mxGeometry x="47.5" y="2340" width="10" height="220" as="geometry" />
        </mxCell>
        <mxCell id="EvKE3HRrCoH5kTLzTVeY-5" value="" style="html=1;points=[];perimeter=orthogonalPerimeter;outlineConnect=0;targetShapes=umlLifeline;portConstraint=eastwest;newEdgeStyle={&quot;edgeStyle&quot;:&quot;elbowEdgeStyle&quot;,&quot;elbow&quot;:&quot;vertical&quot;,&quot;curved&quot;:0,&quot;rounded&quot;:0};" vertex="1" parent="aM9ryv3xv72pqoxQDRHE-5">
          <mxGeometry x="47.5" y="4700" width="10" height="220" as="geometry" />
        </mxCell>
        <mxCell id="SLl3Hjy-PF9EofsxqTcr-178" value="User" style="shape=umlLifeline;perimeter=lifelinePerimeter;whiteSpace=wrap;html=1;container=1;dropTarget=0;collapsible=0;recursiveResize=0;outlineConnect=0;portConstraint=eastwest;newEdgeStyle={&quot;edgeStyle&quot;:&quot;elbowEdgeStyle&quot;,&quot;elbow&quot;:&quot;vertical&quot;,&quot;curved&quot;:0,&quot;rounded&quot;:0};" parent="1" vertex="1">
          <mxGeometry x="990" y="90" width="100" height="6230" as="geometry" />
        </mxCell>
        <mxCell id="SLl3Hjy-PF9EofsxqTcr-187" value="" style="html=1;points=[];perimeter=orthogonalPerimeter;outlineConnect=0;targetShapes=umlLifeline;portConstraint=eastwest;newEdgeStyle={&quot;edgeStyle&quot;:&quot;elbowEdgeStyle&quot;,&quot;elbow&quot;:&quot;vertical&quot;,&quot;curved&quot;:0,&quot;rounded&quot;:0};" parent="SLl3Hjy-PF9EofsxqTcr-178" vertex="1">
          <mxGeometry x="45" y="150" width="10" height="60" as="geometry" />
        </mxCell>
        <mxCell id="SLl3Hjy-PF9EofsxqTcr-204" value="" style="html=1;points=[];perimeter=orthogonalPerimeter;outlineConnect=0;targetShapes=umlLifeline;portConstraint=eastwest;newEdgeStyle={&quot;edgeStyle&quot;:&quot;elbowEdgeStyle&quot;,&quot;elbow&quot;:&quot;vertical&quot;,&quot;curved&quot;:0,&quot;rounded&quot;:0};" parent="SLl3Hjy-PF9EofsxqTcr-178" vertex="1">
          <mxGeometry x="45" y="995" width="10" height="60" as="geometry" />
        </mxCell>
        <mxCell id="SLl3Hjy-PF9EofsxqTcr-246" value="" style="html=1;points=[];perimeter=orthogonalPerimeter;outlineConnect=0;targetShapes=umlLifeline;portConstraint=eastwest;newEdgeStyle={&quot;edgeStyle&quot;:&quot;elbowEdgeStyle&quot;,&quot;elbow&quot;:&quot;vertical&quot;,&quot;curved&quot;:0,&quot;rounded&quot;:0};" parent="SLl3Hjy-PF9EofsxqTcr-178" vertex="1">
          <mxGeometry x="45" y="2380" width="10" height="60" as="geometry" />
        </mxCell>
        <mxCell id="EvKE3HRrCoH5kTLzTVeY-62" value="" style="html=1;points=[];perimeter=orthogonalPerimeter;outlineConnect=0;targetShapes=umlLifeline;portConstraint=eastwest;newEdgeStyle={&quot;edgeStyle&quot;:&quot;elbowEdgeStyle&quot;,&quot;elbow&quot;:&quot;vertical&quot;,&quot;curved&quot;:0,&quot;rounded&quot;:0};" vertex="1" parent="SLl3Hjy-PF9EofsxqTcr-178">
          <mxGeometry x="45" y="4280" width="10" height="60" as="geometry" />
        </mxCell>
        <mxCell id="EvKE3HRrCoH5kTLzTVeY-14" value="" style="html=1;points=[];perimeter=orthogonalPerimeter;outlineConnect=0;targetShapes=umlLifeline;portConstraint=eastwest;newEdgeStyle={&quot;edgeStyle&quot;:&quot;elbowEdgeStyle&quot;,&quot;elbow&quot;:&quot;vertical&quot;,&quot;curved&quot;:0,&quot;rounded&quot;:0};" vertex="1" parent="SLl3Hjy-PF9EofsxqTcr-178">
          <mxGeometry x="45" y="4740" width="10" height="60" as="geometry" />
        </mxCell>
        <mxCell id="EvKE3HRrCoH5kTLzTVeY-130" value="" style="html=1;points=[];perimeter=orthogonalPerimeter;outlineConnect=0;targetShapes=umlLifeline;portConstraint=eastwest;newEdgeStyle={&quot;edgeStyle&quot;:&quot;elbowEdgeStyle&quot;,&quot;elbow&quot;:&quot;vertical&quot;,&quot;curved&quot;:0,&quot;rounded&quot;:0};" vertex="1" parent="SLl3Hjy-PF9EofsxqTcr-178">
          <mxGeometry x="45" y="5380" width="10" height="60" as="geometry" />
        </mxCell>
        <mxCell id="EvKE3HRrCoH5kTLzTVeY-125" value="" style="html=1;points=[];perimeter=orthogonalPerimeter;outlineConnect=0;targetShapes=umlLifeline;portConstraint=eastwest;newEdgeStyle={&quot;edgeStyle&quot;:&quot;elbowEdgeStyle&quot;,&quot;elbow&quot;:&quot;vertical&quot;,&quot;curved&quot;:0,&quot;rounded&quot;:0};" vertex="1" parent="SLl3Hjy-PF9EofsxqTcr-178">
          <mxGeometry x="45" y="5840" width="10" height="60" as="geometry" />
        </mxCell>
        <mxCell id="SLl3Hjy-PF9EofsxqTcr-10" value="" style="shape=umlLifeline;perimeter=lifelinePerimeter;whiteSpace=wrap;html=1;container=1;dropTarget=0;collapsible=0;recursiveResize=0;outlineConnect=0;portConstraint=eastwest;newEdgeStyle={&quot;edgeStyle&quot;:&quot;elbowEdgeStyle&quot;,&quot;elbow&quot;:&quot;vertical&quot;,&quot;curved&quot;:0,&quot;rounded&quot;:0};participant=umlActor;" parent="1" vertex="1">
          <mxGeometry x="30" y="30" width="20" height="6290" as="geometry" />
        </mxCell>
        <mxCell id="SLl3Hjy-PF9EofsxqTcr-19" value="UserRepository" style="shape=umlLifeline;perimeter=lifelinePerimeter;whiteSpace=wrap;html=1;container=1;dropTarget=0;collapsible=0;recursiveResize=0;outlineConnect=0;portConstraint=eastwest;newEdgeStyle={&quot;edgeStyle&quot;:&quot;elbowEdgeStyle&quot;,&quot;elbow&quot;:&quot;vertical&quot;,&quot;curved&quot;:0,&quot;rounded&quot;:0};" parent="1" vertex="1">
          <mxGeometry x="770" y="30" width="340" height="6290" as="geometry" />
        </mxCell>
        <mxCell id="SLl3Hjy-PF9EofsxqTcr-107" value="" style="html=1;points=[];perimeter=orthogonalPerimeter;outlineConnect=0;targetShapes=umlLifeline;portConstraint=eastwest;newEdgeStyle={&quot;edgeStyle&quot;:&quot;elbowEdgeStyle&quot;,&quot;elbow&quot;:&quot;vertical&quot;,&quot;curved&quot;:0,&quot;rounded&quot;:0};" parent="SLl3Hjy-PF9EofsxqTcr-19" vertex="1">
          <mxGeometry x="167.5" y="945" width="10" height="280" as="geometry" />
        </mxCell>
        <mxCell id="SLl3Hjy-PF9EofsxqTcr-201" value="loop" style="shape=umlFrame;whiteSpace=wrap;html=1;pointerEvents=0;" parent="SLl3Hjy-PF9EofsxqTcr-19" vertex="1">
          <mxGeometry x="2.5" y="980" width="370" height="180" as="geometry" />
        </mxCell>
        <mxCell id="SLl3Hjy-PF9EofsxqTcr-202" value="opt" style="shape=umlFrame;whiteSpace=wrap;html=1;pointerEvents=0;" parent="SLl3Hjy-PF9EofsxqTcr-19" vertex="1">
          <mxGeometry x="22.5" y="1020" width="340" height="130" as="geometry" />
        </mxCell>
        <mxCell id="SLl3Hjy-PF9EofsxqTcr-203" value="[u.Id == user.Id]" style="text;align=center;fontStyle=1;verticalAlign=middle;spacingLeft=3;spacingRight=3;strokeColor=none;rotatable=0;points=[[0,0.5],[1,0.5]];portConstraint=eastwest;html=1;" parent="SLl3Hjy-PF9EofsxqTcr-19" vertex="1">
          <mxGeometry x="132.5" y="1020" width="80" height="26" as="geometry" />
        </mxCell>
        <mxCell id="SLl3Hjy-PF9EofsxqTcr-205" value="[u in _users]" style="text;align=center;fontStyle=1;verticalAlign=middle;spacingLeft=3;spacingRight=3;strokeColor=none;rotatable=0;points=[[0,0.5],[1,0.5]];portConstraint=eastwest;html=1;" parent="SLl3Hjy-PF9EofsxqTcr-19" vertex="1">
          <mxGeometry x="132.5" y="980" width="80" height="26" as="geometry" />
        </mxCell>
        <mxCell id="SLl3Hjy-PF9EofsxqTcr-144" value="" style="html=1;points=[];perimeter=orthogonalPerimeter;outlineConnect=0;targetShapes=umlLifeline;portConstraint=eastwest;newEdgeStyle={&quot;edgeStyle&quot;:&quot;elbowEdgeStyle&quot;,&quot;elbow&quot;:&quot;vertical&quot;,&quot;curved&quot;:0,&quot;rounded&quot;:0};" parent="SLl3Hjy-PF9EofsxqTcr-19" vertex="1">
          <mxGeometry x="165" y="2340" width="10" height="210" as="geometry" />
        </mxCell>
        <mxCell id="SLl3Hjy-PF9EofsxqTcr-243" value="loop" style="shape=umlFrame;whiteSpace=wrap;html=1;pointerEvents=0;" parent="SLl3Hjy-PF9EofsxqTcr-19" vertex="1">
          <mxGeometry x="2.5" y="2360" width="317.5" height="180" as="geometry" />
        </mxCell>
        <mxCell id="SLl3Hjy-PF9EofsxqTcr-244" value="opt" style="shape=umlFrame;whiteSpace=wrap;html=1;pointerEvents=0;" parent="SLl3Hjy-PF9EofsxqTcr-19" vertex="1">
          <mxGeometry x="22.5" y="2400" width="287.5" height="130" as="geometry" />
        </mxCell>
        <mxCell id="SLl3Hjy-PF9EofsxqTcr-245" value="[u.Id == user.Id]" style="text;align=center;fontStyle=1;verticalAlign=middle;spacingLeft=3;spacingRight=3;strokeColor=none;rotatable=0;points=[[0,0.5],[1,0.5]];portConstraint=eastwest;html=1;" parent="SLl3Hjy-PF9EofsxqTcr-19" vertex="1">
          <mxGeometry x="97.5" y="2400" width="80" height="26" as="geometry" />
        </mxCell>
        <mxCell id="SLl3Hjy-PF9EofsxqTcr-247" value="[u in _users]" style="text;align=center;fontStyle=1;verticalAlign=middle;spacingLeft=3;spacingRight=3;strokeColor=none;rotatable=0;points=[[0,0.5],[1,0.5]];portConstraint=eastwest;html=1;" parent="SLl3Hjy-PF9EofsxqTcr-19" vertex="1">
          <mxGeometry x="65" y="2360" width="80" height="26" as="geometry" />
        </mxCell>
        <mxCell id="EvKE3HRrCoH5kTLzTVeY-66" value="" style="html=1;points=[];perimeter=orthogonalPerimeter;outlineConnect=0;targetShapes=umlLifeline;portConstraint=eastwest;newEdgeStyle={&quot;edgeStyle&quot;:&quot;elbowEdgeStyle&quot;,&quot;elbow&quot;:&quot;vertical&quot;,&quot;curved&quot;:0,&quot;rounded&quot;:0};" vertex="1" parent="SLl3Hjy-PF9EofsxqTcr-19">
          <mxGeometry x="165" y="4230" width="10" height="230" as="geometry" />
        </mxCell>
        <mxCell id="EvKE3HRrCoH5kTLzTVeY-71" value="[u.Id == id]" style="text;align=center;fontStyle=1;verticalAlign=middle;spacingLeft=3;spacingRight=3;strokeColor=none;rotatable=0;points=[[0,0.5],[1,0.5]];portConstraint=eastwest;html=1;" vertex="1" parent="SLl3Hjy-PF9EofsxqTcr-19">
          <mxGeometry x="93" y="4300" width="80" height="26" as="geometry" />
        </mxCell>
        <mxCell id="EvKE3HRrCoH5kTLzTVeY-72" value="[u in _users]" style="text;align=center;fontStyle=1;verticalAlign=middle;spacingLeft=3;spacingRight=3;strokeColor=none;rotatable=0;points=[[0,0.5],[1,0.5]];portConstraint=eastwest;html=1;" vertex="1" parent="SLl3Hjy-PF9EofsxqTcr-19">
          <mxGeometry x="80" y="4260" width="80" height="26" as="geometry" />
        </mxCell>
        <mxCell id="EvKE3HRrCoH5kTLzTVeY-6" value="" style="html=1;points=[];perimeter=orthogonalPerimeter;outlineConnect=0;targetShapes=umlLifeline;portConstraint=eastwest;newEdgeStyle={&quot;edgeStyle&quot;:&quot;elbowEdgeStyle&quot;,&quot;elbow&quot;:&quot;vertical&quot;,&quot;curved&quot;:0,&quot;rounded&quot;:0};" vertex="1" parent="SLl3Hjy-PF9EofsxqTcr-19">
          <mxGeometry x="165" y="4710" width="10" height="200" as="geometry" />
        </mxCell>
        <mxCell id="EvKE3HRrCoH5kTLzTVeY-112" value="ref" style="shape=umlFrame;whiteSpace=wrap;html=1;pointerEvents=0;" vertex="1" parent="SLl3Hjy-PF9EofsxqTcr-19">
          <mxGeometry x="-740" y="5090" width="1140" height="960" as="geometry" />
        </mxCell>
        <mxCell id="EvKE3HRrCoH5kTLzTVeY-113" value="Reservations" style="text;align=center;fontStyle=1;verticalAlign=middle;spacingLeft=3;spacingRight=3;strokeColor=none;rotatable=0;points=[[0,0.5],[1,0.5]];portConstraint=eastwest;html=1;fontSize=20;" vertex="1" parent="SLl3Hjy-PF9EofsxqTcr-19">
          <mxGeometry x="-670" y="5100" width="140" height="20" as="geometry" />
        </mxCell>
        <mxCell id="EvKE3HRrCoH5kTLzTVeY-114" value="opt" style="shape=umlFrame;whiteSpace=wrap;html=1;pointerEvents=0;" vertex="1" parent="SLl3Hjy-PF9EofsxqTcr-19">
          <mxGeometry x="-710" y="5630" width="1090" height="410" as="geometry" />
        </mxCell>
        <mxCell id="EvKE3HRrCoH5kTLzTVeY-122" value="loop" style="shape=umlFrame;whiteSpace=wrap;html=1;pointerEvents=0;" vertex="1" parent="SLl3Hjy-PF9EofsxqTcr-19">
          <mxGeometry x="-2.5" y="5820" width="370" height="180" as="geometry" />
        </mxCell>
        <mxCell id="EvKE3HRrCoH5kTLzTVeY-123" value="opt" style="shape=umlFrame;whiteSpace=wrap;html=1;pointerEvents=0;" vertex="1" parent="SLl3Hjy-PF9EofsxqTcr-19">
          <mxGeometry x="17.5" y="5860" width="340" height="130" as="geometry" />
        </mxCell>
        <mxCell id="EvKE3HRrCoH5kTLzTVeY-1" value="ref" style="shape=umlFrame;whiteSpace=wrap;html=1;pointerEvents=0;" vertex="1" parent="SLl3Hjy-PF9EofsxqTcr-19">
          <mxGeometry x="-697.5" y="4060" width="1140" height="890" as="geometry" />
        </mxCell>
        <mxCell id="EvKE3HRrCoH5kTLzTVeY-2" value="ReserveAccommodation" style="text;align=center;fontStyle=1;verticalAlign=middle;spacingLeft=3;spacingRight=3;strokeColor=none;rotatable=0;points=[[0,0.5],[1,0.5]];portConstraint=eastwest;html=1;fontSize=20;" vertex="1" parent="SLl3Hjy-PF9EofsxqTcr-19">
          <mxGeometry x="-627.5" y="4070" width="240" height="20" as="geometry" />
        </mxCell>
        <mxCell id="EvKE3HRrCoH5kTLzTVeY-3" value="opt" style="shape=umlFrame;whiteSpace=wrap;html=1;pointerEvents=0;" vertex="1" parent="SLl3Hjy-PF9EofsxqTcr-19">
          <mxGeometry x="-667.5" y="4520" width="1090" height="420" as="geometry" />
        </mxCell>
        <mxCell id="EvKE3HRrCoH5kTLzTVeY-4" value="User.Score &amp;gt; 0 &amp;amp;&amp;amp; User.Super" style="text;align=center;fontStyle=1;verticalAlign=middle;spacingLeft=3;spacingRight=3;strokeColor=none;rotatable=0;points=[[0,0.5],[1,0.5]];portConstraint=eastwest;html=1;" vertex="1" parent="SLl3Hjy-PF9EofsxqTcr-19">
          <mxGeometry x="-617.5" y="4526" width="210" height="26" as="geometry" />
        </mxCell>
        <mxCell id="EvKE3HRrCoH5kTLzTVeY-11" value="loop" style="shape=umlFrame;whiteSpace=wrap;html=1;pointerEvents=0;" vertex="1" parent="SLl3Hjy-PF9EofsxqTcr-19">
          <mxGeometry x="2.5" y="4720" width="370" height="180" as="geometry" />
        </mxCell>
        <mxCell id="EvKE3HRrCoH5kTLzTVeY-12" value="opt" style="shape=umlFrame;whiteSpace=wrap;html=1;pointerEvents=0;" vertex="1" parent="SLl3Hjy-PF9EofsxqTcr-19">
          <mxGeometry x="22.5" y="4760" width="340" height="130" as="geometry" />
        </mxCell>
        <mxCell id="EvKE3HRrCoH5kTLzTVeY-69" value="loop" style="shape=umlFrame;whiteSpace=wrap;html=1;pointerEvents=0;" vertex="1" parent="SLl3Hjy-PF9EofsxqTcr-19">
          <mxGeometry x="2.5" y="4260" width="370" height="180" as="geometry" />
        </mxCell>
        <mxCell id="EvKE3HRrCoH5kTLzTVeY-70" value="opt" style="shape=umlFrame;whiteSpace=wrap;html=1;pointerEvents=0;" vertex="1" parent="SLl3Hjy-PF9EofsxqTcr-19">
          <mxGeometry x="22.5" y="4300" width="340" height="130" as="geometry" />
        </mxCell>
        <mxCell id="EvKE3HRrCoH5kTLzTVeY-75" value="DecreaseScoreOfSuper()" style="text;align=center;fontStyle=1;verticalAlign=middle;spacingLeft=3;spacingRight=3;strokeColor=none;rotatable=0;points=[[0,0.5],[1,0.5]];portConstraint=eastwest;html=1;" vertex="1" parent="SLl3Hjy-PF9EofsxqTcr-19">
          <mxGeometry x="-637.5" y="4500" width="80" height="26" as="geometry" />
        </mxCell>
        <mxCell id="EvKE3HRrCoH5kTLzTVeY-147" value="ReserveAccommodationForm" style="shape=umlLifeline;perimeter=lifelinePerimeter;whiteSpace=wrap;html=1;container=1;dropTarget=0;collapsible=0;recursiveResize=0;outlineConnect=0;portConstraint=eastwest;newEdgeStyle={&quot;edgeStyle&quot;:&quot;elbowEdgeStyle&quot;,&quot;elbow&quot;:&quot;vertical&quot;,&quot;curved&quot;:0,&quot;rounded&quot;:0};" vertex="1" parent="SLl3Hjy-PF9EofsxqTcr-19">
          <mxGeometry x="-367.5" y="4104" width="170" height="870" as="geometry" />
        </mxCell>
        <mxCell id="EvKE3HRrCoH5kTLzTVeY-76" value="" style="html=1;points=[];perimeter=orthogonalPerimeter;outlineConnect=0;targetShapes=umlLifeline;portConstraint=eastwest;newEdgeStyle={&quot;edgeStyle&quot;:&quot;elbowEdgeStyle&quot;,&quot;elbow&quot;:&quot;vertical&quot;,&quot;curved&quot;:0,&quot;rounded&quot;:0};" vertex="1" parent="EvKE3HRrCoH5kTLzTVeY-147">
          <mxGeometry x="80" y="526" width="10" height="40" as="geometry" />
        </mxCell>
        <mxCell id="EvKE3HRrCoH5kTLzTVeY-77" value="--User.Score()" style="html=1;align=left;spacingLeft=2;endArrow=block;rounded=0;edgeStyle=orthogonalEdgeStyle;curved=0;rounded=0;" edge="1" target="EvKE3HRrCoH5kTLzTVeY-76" parent="EvKE3HRrCoH5kTLzTVeY-147" source="EvKE3HRrCoH5kTLzTVeY-147">
          <mxGeometry relative="1" as="geometry">
            <mxPoint x="-299.94" y="496" as="sourcePoint" />
            <Array as="points">
              <mxPoint x="180" y="516" />
              <mxPoint x="180" y="546" />
            </Array>
          </mxGeometry>
        </mxCell>
        <mxCell id="EvKE3HRrCoH5kTLzTVeY-143" value="IncreaseScoreOfSuper()" style="text;align=center;fontStyle=1;verticalAlign=middle;spacingLeft=3;spacingRight=3;strokeColor=none;rotatable=0;points=[[0,0.5],[1,0.5]];portConstraint=eastwest;html=1;" vertex="1" parent="SLl3Hjy-PF9EofsxqTcr-19">
          <mxGeometry x="-667.5" y="5600" width="140" height="26" as="geometry" />
        </mxCell>
        <mxCell id="EvKE3HRrCoH5kTLzTVeY-115" value="User.Score &amp;lt; 5 &amp;amp;&amp;amp; User.Super" style="text;align=center;fontStyle=1;verticalAlign=middle;spacingLeft=3;spacingRight=3;strokeColor=none;rotatable=0;points=[[0,0.5],[1,0.5]];portConstraint=eastwest;html=1;" vertex="1" parent="SLl3Hjy-PF9EofsxqTcr-19">
          <mxGeometry x="-617.5" y="5626" width="210" height="26" as="geometry" />
        </mxCell>
        <mxCell id="EvKE3HRrCoH5kTLzTVeY-149" value="ReservationsForm" style="shape=umlLifeline;perimeter=lifelinePerimeter;whiteSpace=wrap;html=1;container=1;dropTarget=0;collapsible=0;recursiveResize=0;outlineConnect=0;portConstraint=eastwest;newEdgeStyle={&quot;edgeStyle&quot;:&quot;elbowEdgeStyle&quot;,&quot;elbow&quot;:&quot;vertical&quot;,&quot;curved&quot;:0,&quot;rounded&quot;:0};" vertex="1" parent="SLl3Hjy-PF9EofsxqTcr-19">
          <mxGeometry x="-337.5" y="5140" width="105" height="1150" as="geometry" />
        </mxCell>
        <mxCell id="EvKE3HRrCoH5kTLzTVeY-144" value="" style="html=1;points=[];perimeter=orthogonalPerimeter;outlineConnect=0;targetShapes=umlLifeline;portConstraint=eastwest;newEdgeStyle={&quot;edgeStyle&quot;:&quot;elbowEdgeStyle&quot;,&quot;elbow&quot;:&quot;vertical&quot;,&quot;curved&quot;:0,&quot;rounded&quot;:0};" vertex="1" parent="EvKE3HRrCoH5kTLzTVeY-149">
          <mxGeometry x="47.49999999999994" y="580" width="10" height="40" as="geometry" />
        </mxCell>
        <mxCell id="EvKE3HRrCoH5kTLzTVeY-145" value="++User.Score()" style="html=1;align=left;spacingLeft=2;endArrow=block;rounded=0;edgeStyle=orthogonalEdgeStyle;curved=0;rounded=0;" edge="1" parent="EvKE3HRrCoH5kTLzTVeY-149" target="EvKE3HRrCoH5kTLzTVeY-144" source="EvKE3HRrCoH5kTLzTVeY-149">
          <mxGeometry relative="1" as="geometry">
            <mxPoint x="-329.94000000000005" y="560" as="sourcePoint" />
            <Array as="points">
              <mxPoint x="130" y="570" />
              <mxPoint x="130" y="600" />
            </Array>
          </mxGeometry>
        </mxCell>
        <mxCell id="EvKE3HRrCoH5kTLzTVeY-15" value="[u in _users]" style="text;align=center;fontStyle=1;verticalAlign=middle;spacingLeft=3;spacingRight=3;strokeColor=none;rotatable=0;points=[[0,0.5],[1,0.5]];portConstraint=eastwest;html=1;" vertex="1" parent="SLl3Hjy-PF9EofsxqTcr-19">
          <mxGeometry x="73" y="4720" width="80" height="26" as="geometry" />
        </mxCell>
        <mxCell id="EvKE3HRrCoH5kTLzTVeY-13" value="[u.Id == user.Id]" style="text;align=center;fontStyle=1;verticalAlign=middle;spacingLeft=3;spacingRight=3;strokeColor=none;rotatable=0;points=[[0,0.5],[1,0.5]];portConstraint=eastwest;html=1;" vertex="1" parent="SLl3Hjy-PF9EofsxqTcr-19">
          <mxGeometry x="93" y="4760" width="80" height="26" as="geometry" />
        </mxCell>
        <mxCell id="EvKE3HRrCoH5kTLzTVeY-134" value="" style="html=1;points=[];perimeter=orthogonalPerimeter;outlineConnect=0;targetShapes=umlLifeline;portConstraint=eastwest;newEdgeStyle={&quot;edgeStyle&quot;:&quot;elbowEdgeStyle&quot;,&quot;elbow&quot;:&quot;vertical&quot;,&quot;curved&quot;:0,&quot;rounded&quot;:0};" vertex="1" parent="SLl3Hjy-PF9EofsxqTcr-19">
          <mxGeometry x="163" y="5337.5" width="10" height="235" as="geometry" />
        </mxCell>
        <mxCell id="EvKE3HRrCoH5kTLzTVeY-137" value="loop" style="shape=umlFrame;whiteSpace=wrap;html=1;pointerEvents=0;" vertex="1" parent="SLl3Hjy-PF9EofsxqTcr-19">
          <mxGeometry x="-2.5" y="5360" width="370" height="180" as="geometry" />
        </mxCell>
        <mxCell id="EvKE3HRrCoH5kTLzTVeY-138" value="opt" style="shape=umlFrame;whiteSpace=wrap;html=1;pointerEvents=0;" vertex="1" parent="SLl3Hjy-PF9EofsxqTcr-19">
          <mxGeometry x="17.5" y="5400" width="340" height="130" as="geometry" />
        </mxCell>
        <mxCell id="EvKE3HRrCoH5kTLzTVeY-139" value="[u.Id == id]" style="text;align=center;fontStyle=1;verticalAlign=middle;spacingLeft=3;spacingRight=3;strokeColor=none;rotatable=0;points=[[0,0.5],[1,0.5]];portConstraint=eastwest;html=1;" vertex="1" parent="SLl3Hjy-PF9EofsxqTcr-19">
          <mxGeometry x="73" y="5400" width="80" height="26" as="geometry" />
        </mxCell>
        <mxCell id="EvKE3HRrCoH5kTLzTVeY-140" value="[u in _users]" style="text;align=center;fontStyle=1;verticalAlign=middle;spacingLeft=3;spacingRight=3;strokeColor=none;rotatable=0;points=[[0,0.5],[1,0.5]];portConstraint=eastwest;html=1;" vertex="1" parent="SLl3Hjy-PF9EofsxqTcr-19">
          <mxGeometry x="65" y="5360" width="80" height="26" as="geometry" />
        </mxCell>
        <mxCell id="EvKE3HRrCoH5kTLzTVeY-117" value="" style="html=1;points=[];perimeter=orthogonalPerimeter;outlineConnect=0;targetShapes=umlLifeline;portConstraint=eastwest;newEdgeStyle={&quot;edgeStyle&quot;:&quot;elbowEdgeStyle&quot;,&quot;elbow&quot;:&quot;vertical&quot;,&quot;curved&quot;:0,&quot;rounded&quot;:0};" vertex="1" parent="SLl3Hjy-PF9EofsxqTcr-19">
          <mxGeometry x="163" y="5810" width="10" height="200" as="geometry" />
        </mxCell>
        <mxCell id="EvKE3HRrCoH5kTLzTVeY-126" value="[u in _users]" style="text;align=center;fontStyle=1;verticalAlign=middle;spacingLeft=3;spacingRight=3;strokeColor=none;rotatable=0;points=[[0,0.5],[1,0.5]];portConstraint=eastwest;html=1;" vertex="1" parent="SLl3Hjy-PF9EofsxqTcr-19">
          <mxGeometry x="60" y="5820" width="80" height="26" as="geometry" />
        </mxCell>
        <mxCell id="EvKE3HRrCoH5kTLzTVeY-124" value="[u.Id == user.Id]" style="text;align=center;fontStyle=1;verticalAlign=middle;spacingLeft=3;spacingRight=3;strokeColor=none;rotatable=0;points=[[0,0.5],[1,0.5]];portConstraint=eastwest;html=1;" vertex="1" parent="SLl3Hjy-PF9EofsxqTcr-19">
          <mxGeometry x="90" y="5860" width="80" height="26" as="geometry" />
        </mxCell>
        <mxCell id="SLl3Hjy-PF9EofsxqTcr-66" value="" style="html=1;points=[];perimeter=orthogonalPerimeter;outlineConnect=0;targetShapes=umlLifeline;portConstraint=eastwest;newEdgeStyle={&quot;edgeStyle&quot;:&quot;elbowEdgeStyle&quot;,&quot;elbow&quot;:&quot;vertical&quot;,&quot;curved&quot;:0,&quot;rounded&quot;:0};" parent="SLl3Hjy-PF9EofsxqTcr-19" vertex="1">
          <mxGeometry x="163" y="110" width="10" height="230" as="geometry" />
        </mxCell>
        <mxCell id="EvKE3HRrCoH5kTLzTVeY-215" value="" style="html=1;points=[];perimeter=orthogonalPerimeter;outlineConnect=0;targetShapes=umlLifeline;portConstraint=eastwest;newEdgeStyle={&quot;edgeStyle&quot;:&quot;elbowEdgeStyle&quot;,&quot;elbow&quot;:&quot;vertical&quot;,&quot;curved&quot;:0,&quot;rounded&quot;:0};" vertex="1" parent="SLl3Hjy-PF9EofsxqTcr-19">
          <mxGeometry x="165" y="2830" width="10" height="230" as="geometry" />
        </mxCell>
        <mxCell id="SLl3Hjy-PF9EofsxqTcr-24" value="ReservedDatesService" style="shape=umlLifeline;perimeter=lifelinePerimeter;whiteSpace=wrap;html=1;container=1;dropTarget=0;collapsible=0;recursiveResize=0;outlineConnect=0;portConstraint=eastwest;newEdgeStyle={&quot;edgeStyle&quot;:&quot;elbowEdgeStyle&quot;,&quot;elbow&quot;:&quot;vertical&quot;,&quot;curved&quot;:0,&quot;rounded&quot;:0};" parent="1" vertex="1">
          <mxGeometry x="1200" y="30" width="150" height="6290" as="geometry" />
        </mxCell>
        <mxCell id="SLl3Hjy-PF9EofsxqTcr-92" value="" style="html=1;points=[];perimeter=orthogonalPerimeter;outlineConnect=0;targetShapes=umlLifeline;portConstraint=eastwest;newEdgeStyle={&quot;edgeStyle&quot;:&quot;elbowEdgeStyle&quot;,&quot;elbow&quot;:&quot;vertical&quot;,&quot;curved&quot;:0,&quot;rounded&quot;:0};" parent="SLl3Hjy-PF9EofsxqTcr-24" vertex="1">
          <mxGeometry x="70" y="380" width="10" height="190" as="geometry" />
        </mxCell>
        <mxCell id="SLl3Hjy-PF9EofsxqTcr-26" value="ReservedDatesRepository" style="shape=umlLifeline;perimeter=lifelinePerimeter;whiteSpace=wrap;html=1;container=1;dropTarget=0;collapsible=0;recursiveResize=0;outlineConnect=0;portConstraint=eastwest;newEdgeStyle={&quot;edgeStyle&quot;:&quot;elbowEdgeStyle&quot;,&quot;elbow&quot;:&quot;vertical&quot;,&quot;curved&quot;:0,&quot;rounded&quot;:0};" parent="1" vertex="1">
          <mxGeometry x="1520" y="30" width="170" height="6290" as="geometry" />
        </mxCell>
        <mxCell id="SLl3Hjy-PF9EofsxqTcr-95" value="" style="html=1;points=[];perimeter=orthogonalPerimeter;outlineConnect=0;targetShapes=umlLifeline;portConstraint=eastwest;newEdgeStyle={&quot;edgeStyle&quot;:&quot;elbowEdgeStyle&quot;,&quot;elbow&quot;:&quot;vertical&quot;,&quot;curved&quot;:0,&quot;rounded&quot;:0};" parent="SLl3Hjy-PF9EofsxqTcr-26" vertex="1">
          <mxGeometry x="80" y="400" width="10" height="160" as="geometry" />
        </mxCell>
        <mxCell id="SLl3Hjy-PF9EofsxqTcr-35" value="loop" style="shape=umlFrame;whiteSpace=wrap;html=1;pointerEvents=0;" parent="1" vertex="1">
          <mxGeometry x="160" y="620" width="1700" height="230" as="geometry" />
        </mxCell>
        <mxCell id="SLl3Hjy-PF9EofsxqTcr-36" value="opt" style="shape=umlFrame;whiteSpace=wrap;html=1;pointerEvents=0;" parent="1" vertex="1">
          <mxGeometry x="180" y="670" width="1670" height="160" as="geometry" />
        </mxCell>
        <mxCell id="SLl3Hjy-PF9EofsxqTcr-38" value="[d.EndDate &amp;lt;= DateTime.Now &lt;br&gt;&amp;amp;&amp;amp; d.EndDate &amp;gt; User.DateOfBecomingSuper]" style="text;align=center;fontStyle=1;verticalAlign=middle;spacingLeft=3;spacingRight=3;strokeColor=none;rotatable=0;points=[[0,0.5],[1,0.5]];portConstraint=eastwest;html=1;" parent="1" vertex="1">
          <mxGeometry x="340" y="680" width="80" height="26" as="geometry" />
        </mxCell>
        <mxCell id="SLl3Hjy-PF9EofsxqTcr-64" value="GetById(userId)" style="html=1;verticalAlign=bottom;endArrow=block;edgeStyle=elbowEdgeStyle;elbow=vertical;curved=0;rounded=0;" parent="1" source="aM9ryv3xv72pqoxQDRHE-1" target="SLl3Hjy-PF9EofsxqTcr-63" edge="1">
          <mxGeometry relative="1" as="geometry">
            <mxPoint x="270" y="130" as="sourcePoint" />
            <Array as="points">
              <mxPoint x="300" y="130" />
            </Array>
          </mxGeometry>
        </mxCell>
        <mxCell id="SLl3Hjy-PF9EofsxqTcr-65" value="User" style="html=1;verticalAlign=bottom;endArrow=open;dashed=1;endSize=8;edgeStyle=elbowEdgeStyle;elbow=vertical;curved=0;rounded=0;" parent="1" source="SLl3Hjy-PF9EofsxqTcr-63" target="aM9ryv3xv72pqoxQDRHE-1" edge="1">
          <mxGeometry relative="1" as="geometry">
            <mxPoint x="310" y="295.03" as="targetPoint" />
            <Array as="points">
              <mxPoint x="320" y="380" />
              <mxPoint x="310" y="295" />
            </Array>
          </mxGeometry>
        </mxCell>
        <mxCell id="SLl3Hjy-PF9EofsxqTcr-67" value="GetById(userId)" style="html=1;verticalAlign=bottom;endArrow=block;edgeStyle=elbowEdgeStyle;elbow=vertical;curved=0;rounded=0;" parent="1" source="aM9ryv3xv72pqoxQDRHE-5" target="SLl3Hjy-PF9EofsxqTcr-66" edge="1">
          <mxGeometry relative="1" as="geometry">
            <mxPoint x="590" y="210" as="sourcePoint" />
            <Array as="points">
              <mxPoint x="700" y="140" />
              <mxPoint x="600" y="150" />
            </Array>
          </mxGeometry>
        </mxCell>
        <mxCell id="SLl3Hjy-PF9EofsxqTcr-68" value="User" style="html=1;verticalAlign=bottom;endArrow=open;dashed=1;endSize=8;edgeStyle=elbowEdgeStyle;elbow=vertical;curved=0;rounded=0;" parent="1" source="SLl3Hjy-PF9EofsxqTcr-66" target="aM9ryv3xv72pqoxQDRHE-5" edge="1">
          <mxGeometry relative="1" as="geometry">
            <mxPoint x="590" y="285" as="targetPoint" />
            <Array as="points">
              <mxPoint x="690" y="370" />
              <mxPoint x="640" y="370" />
              <mxPoint x="610" y="370" />
            </Array>
          </mxGeometry>
        </mxCell>
        <mxCell id="SLl3Hjy-PF9EofsxqTcr-56" value="loop" style="shape=umlFrame;whiteSpace=wrap;html=1;pointerEvents=0;" parent="1" vertex="1">
          <mxGeometry x="720" y="160" width="370" height="180" as="geometry" />
        </mxCell>
        <mxCell id="SLl3Hjy-PF9EofsxqTcr-57" value="opt" style="shape=umlFrame;whiteSpace=wrap;html=1;pointerEvents=0;" parent="1" vertex="1">
          <mxGeometry x="740" y="200" width="340" height="130" as="geometry" />
        </mxCell>
        <mxCell id="SLl3Hjy-PF9EofsxqTcr-58" value="[u.Id == id]" style="text;align=center;fontStyle=1;verticalAlign=middle;spacingLeft=3;spacingRight=3;strokeColor=none;rotatable=0;points=[[0,0.5],[1,0.5]];portConstraint=eastwest;html=1;" parent="1" vertex="1">
          <mxGeometry x="800" y="200" width="80" height="26" as="geometry" />
        </mxCell>
        <mxCell id="SLl3Hjy-PF9EofsxqTcr-81" value="SignIn" style="html=1;verticalAlign=bottom;endArrow=block;edgeStyle=elbowEdgeStyle;elbow=vertical;curved=0;rounded=0;" parent="1" source="SLl3Hjy-PF9EofsxqTcr-10" target="SLl3Hjy-PF9EofsxqTcr-80" edge="1">
          <mxGeometry relative="1" as="geometry">
            <mxPoint x="60" y="160" as="sourcePoint" />
            <Array as="points">
              <mxPoint x="70" y="90" />
            </Array>
          </mxGeometry>
        </mxCell>
        <mxCell id="SLl3Hjy-PF9EofsxqTcr-93" value="GetByGuestId(userId)" style="html=1;verticalAlign=bottom;endArrow=block;edgeStyle=elbowEdgeStyle;elbow=vertical;curved=0;rounded=0;" parent="1" source="aM9ryv3xv72pqoxQDRHE-1" target="SLl3Hjy-PF9EofsxqTcr-92" edge="1">
          <mxGeometry relative="1" as="geometry">
            <mxPoint x="370" y="450" as="sourcePoint" />
            <Array as="points">
              <mxPoint x="690" y="410" />
              <mxPoint x="300" y="450" />
              <mxPoint x="280" y="460" />
            </Array>
          </mxGeometry>
        </mxCell>
        <mxCell id="SLl3Hjy-PF9EofsxqTcr-94" value="reservedDates" style="html=1;verticalAlign=bottom;endArrow=open;dashed=1;endSize=8;edgeStyle=elbowEdgeStyle;elbow=vertical;curved=0;rounded=0;" parent="1" source="SLl3Hjy-PF9EofsxqTcr-92" target="aM9ryv3xv72pqoxQDRHE-1" edge="1">
          <mxGeometry x="-0.0017" relative="1" as="geometry">
            <mxPoint x="370" y="525" as="targetPoint" />
            <Array as="points">
              <mxPoint x="810" y="600" />
              <mxPoint x="290" y="600" />
            </Array>
            <mxPoint as="offset" />
          </mxGeometry>
        </mxCell>
        <mxCell id="SLl3Hjy-PF9EofsxqTcr-96" value="GetByGuestId(userId)" style="html=1;verticalAlign=bottom;endArrow=block;edgeStyle=elbowEdgeStyle;elbow=vertical;curved=0;rounded=0;" parent="1" source="SLl3Hjy-PF9EofsxqTcr-92" target="SLl3Hjy-PF9EofsxqTcr-95" edge="1">
          <mxGeometry relative="1" as="geometry">
            <mxPoint x="1200" y="450" as="sourcePoint" />
            <Array as="points">
              <mxPoint x="1440" y="430" />
            </Array>
          </mxGeometry>
        </mxCell>
        <mxCell id="SLl3Hjy-PF9EofsxqTcr-97" value="reservedDates" style="html=1;verticalAlign=bottom;endArrow=open;dashed=1;endSize=8;edgeStyle=elbowEdgeStyle;elbow=vertical;curved=0;rounded=0;" parent="1" source="SLl3Hjy-PF9EofsxqTcr-95" target="SLl3Hjy-PF9EofsxqTcr-24" edge="1">
          <mxGeometry relative="1" as="geometry">
            <mxPoint x="1060" y="525" as="targetPoint" />
            <Array as="points">
              <mxPoint x="1380" y="590" />
              <mxPoint x="1160" y="590" />
              <mxPoint x="1020" y="590" />
            </Array>
          </mxGeometry>
        </mxCell>
        <mxCell id="SLl3Hjy-PF9EofsxqTcr-98" value="loop" style="shape=umlFrame;whiteSpace=wrap;html=1;pointerEvents=0;" parent="1" vertex="1">
          <mxGeometry x="1520" y="440" width="340" height="140" as="geometry" />
        </mxCell>
        <mxCell id="SLl3Hjy-PF9EofsxqTcr-99" value="opt" style="shape=umlFrame;whiteSpace=wrap;html=1;pointerEvents=0;" parent="1" vertex="1">
          <mxGeometry x="1530" y="480" width="320" height="90" as="geometry" />
        </mxCell>
        <mxCell id="SLl3Hjy-PF9EofsxqTcr-100" value="[d.UserId == guetId)]" style="text;align=center;fontStyle=1;verticalAlign=middle;spacingLeft=3;spacingRight=3;strokeColor=none;rotatable=0;points=[[0,0.5],[1,0.5]];portConstraint=eastwest;html=1;" parent="1" vertex="1">
          <mxGeometry x="1620" y="480" width="110" height="26" as="geometry" />
        </mxCell>
        <mxCell id="SLl3Hjy-PF9EofsxqTcr-105" value="Update(User)" style="html=1;verticalAlign=bottom;endArrow=block;edgeStyle=elbowEdgeStyle;elbow=vertical;curved=0;rounded=0;" parent="1" target="SLl3Hjy-PF9EofsxqTcr-104" edge="1">
          <mxGeometry relative="1" as="geometry">
            <mxPoint x="241.57142857142935" y="960" as="sourcePoint" />
            <Array as="points">
              <mxPoint x="302.5" y="960" />
              <mxPoint x="282.5" y="1020" />
            </Array>
          </mxGeometry>
        </mxCell>
        <mxCell id="SLl3Hjy-PF9EofsxqTcr-106" value="" style="html=1;verticalAlign=bottom;endArrow=open;dashed=1;endSize=8;edgeStyle=elbowEdgeStyle;elbow=vertical;curved=0;rounded=0;" parent="1" source="SLl3Hjy-PF9EofsxqTcr-104" edge="1">
          <mxGeometry relative="1" as="geometry">
            <mxPoint x="241.57142857142935" y="1270" as="targetPoint" />
            <Array as="points">
              <mxPoint x="382.5" y="1270" />
              <mxPoint x="532.5" y="1180" />
            </Array>
          </mxGeometry>
        </mxCell>
        <mxCell id="SLl3Hjy-PF9EofsxqTcr-108" value="Update(User)" style="html=1;verticalAlign=bottom;endArrow=block;edgeStyle=elbowEdgeStyle;elbow=vertical;curved=0;rounded=0;" parent="1" source="SLl3Hjy-PF9EofsxqTcr-104" target="SLl3Hjy-PF9EofsxqTcr-107" edge="1">
          <mxGeometry relative="1" as="geometry">
            <mxPoint x="640" y="980" as="sourcePoint" />
            <Array as="points">
              <mxPoint x="810" y="980" />
            </Array>
          </mxGeometry>
        </mxCell>
        <mxCell id="SLl3Hjy-PF9EofsxqTcr-109" value="" style="html=1;verticalAlign=bottom;endArrow=open;dashed=1;endSize=8;edgeStyle=elbowEdgeStyle;elbow=vertical;curved=0;rounded=0;" parent="1" source="SLl3Hjy-PF9EofsxqTcr-107" target="SLl3Hjy-PF9EofsxqTcr-104" edge="1">
          <mxGeometry relative="1" as="geometry">
            <mxPoint x="640" y="1260" as="targetPoint" />
            <Array as="points">
              <mxPoint x="732.5" y="1260" />
              <mxPoint x="612.5" y="1260" />
              <mxPoint x="652.5" y="1160" />
              <mxPoint x="702.5" y="1150" />
            </Array>
          </mxGeometry>
        </mxCell>
        <mxCell id="SLl3Hjy-PF9EofsxqTcr-161" value="ReservedDates" style="shape=umlLifeline;perimeter=lifelinePerimeter;whiteSpace=wrap;html=1;container=1;dropTarget=0;collapsible=0;recursiveResize=0;outlineConnect=0;portConstraint=eastwest;newEdgeStyle={&quot;edgeStyle&quot;:&quot;elbowEdgeStyle&quot;,&quot;elbow&quot;:&quot;vertical&quot;,&quot;curved&quot;:0,&quot;rounded&quot;:0};" parent="1" vertex="1">
          <mxGeometry x="1760" y="350" width="120" height="5960" as="geometry" />
        </mxCell>
        <mxCell id="SLl3Hjy-PF9EofsxqTcr-175" value="" style="html=1;points=[];perimeter=orthogonalPerimeter;outlineConnect=0;targetShapes=umlLifeline;portConstraint=eastwest;newEdgeStyle={&quot;edgeStyle&quot;:&quot;elbowEdgeStyle&quot;,&quot;elbow&quot;:&quot;vertical&quot;,&quot;curved&quot;:0,&quot;rounded&quot;:0};" parent="SLl3Hjy-PF9EofsxqTcr-161" vertex="1">
          <mxGeometry x="55" y="170" width="10" height="30" as="geometry" />
        </mxCell>
        <mxCell id="SLl3Hjy-PF9EofsxqTcr-191" value="" style="html=1;points=[];perimeter=orthogonalPerimeter;outlineConnect=0;targetShapes=umlLifeline;portConstraint=eastwest;newEdgeStyle={&quot;edgeStyle&quot;:&quot;elbowEdgeStyle&quot;,&quot;elbow&quot;:&quot;vertical&quot;,&quot;curved&quot;:0,&quot;rounded&quot;:0};" parent="SLl3Hjy-PF9EofsxqTcr-161" vertex="1">
          <mxGeometry x="55" y="380" width="10" height="70" as="geometry" />
        </mxCell>
        <mxCell id="SLl3Hjy-PF9EofsxqTcr-163" value="[d in reservedDates]" style="text;align=center;fontStyle=1;verticalAlign=middle;spacingLeft=3;spacingRight=3;strokeColor=none;rotatable=0;points=[[0,0.5],[1,0.5]];portConstraint=eastwest;html=1;" parent="1" vertex="1">
          <mxGeometry x="1630" y="440" width="80" height="26" as="geometry" />
        </mxCell>
        <mxCell id="SLl3Hjy-PF9EofsxqTcr-165" value="&amp;lt;&amp;lt;create&amp;gt;&amp;gt; reservedDates&amp;nbsp;" style="html=1;verticalAlign=bottom;endArrow=block;edgeStyle=elbowEdgeStyle;elbow=vertical;curved=0;rounded=0;" parent="1" source="SLl3Hjy-PF9EofsxqTcr-26" edge="1">
          <mxGeometry x="0.003" width="80" relative="1" as="geometry">
            <mxPoint x="1690" y="370" as="sourcePoint" />
            <mxPoint x="1770" y="370" as="targetPoint" />
            <Array as="points">
              <mxPoint x="1660" y="370" />
            </Array>
            <mxPoint as="offset" />
          </mxGeometry>
        </mxCell>
        <mxCell id="SLl3Hjy-PF9EofsxqTcr-176" value="Add(d)" style="html=1;verticalAlign=bottom;endArrow=block;edgeStyle=elbowEdgeStyle;elbow=vertical;curved=0;rounded=0;" parent="1" source="SLl3Hjy-PF9EofsxqTcr-95" target="SLl3Hjy-PF9EofsxqTcr-175" edge="1">
          <mxGeometry relative="1" as="geometry">
            <mxPoint x="1740" y="590" as="sourcePoint" />
            <Array as="points">
              <mxPoint x="1800" y="520" />
              <mxPoint x="1740" y="510" />
            </Array>
          </mxGeometry>
        </mxCell>
        <mxCell id="SLl3Hjy-PF9EofsxqTcr-177" value="" style="html=1;verticalAlign=bottom;endArrow=open;dashed=1;endSize=8;edgeStyle=elbowEdgeStyle;elbow=vertical;curved=0;rounded=0;" parent="1" source="SLl3Hjy-PF9EofsxqTcr-175" target="SLl3Hjy-PF9EofsxqTcr-95" edge="1">
          <mxGeometry relative="1" as="geometry">
            <mxPoint x="1740" y="665" as="targetPoint" />
            <Array as="points">
              <mxPoint x="1780" y="550" />
              <mxPoint x="1720" y="540" />
            </Array>
          </mxGeometry>
        </mxCell>
        <mxCell id="SLl3Hjy-PF9EofsxqTcr-179" value="&amp;lt;&amp;lt;create&amp;gt;&amp;gt; _users&amp;nbsp;" style="html=1;verticalAlign=bottom;endArrow=block;edgeStyle=elbowEdgeStyle;elbow=vertical;curved=0;rounded=0;entryX=0;entryY=0.006;entryDx=0;entryDy=0;entryPerimeter=0;" parent="1" source="SLl3Hjy-PF9EofsxqTcr-19" target="SLl3Hjy-PF9EofsxqTcr-178" edge="1">
          <mxGeometry width="80" relative="1" as="geometry">
            <mxPoint x="860" y="110" as="sourcePoint" />
            <mxPoint x="905" y="110.11" as="targetPoint" />
          </mxGeometry>
        </mxCell>
        <mxCell id="SLl3Hjy-PF9EofsxqTcr-180" value="[u in _users]" style="text;align=center;fontStyle=1;verticalAlign=middle;spacingLeft=3;spacingRight=3;strokeColor=none;rotatable=0;points=[[0,0.5],[1,0.5]];portConstraint=eastwest;html=1;" parent="1" vertex="1">
          <mxGeometry x="790" y="160" width="80" height="26" as="geometry" />
        </mxCell>
        <mxCell id="SLl3Hjy-PF9EofsxqTcr-188" value="Add(u)" style="html=1;verticalAlign=bottom;endArrow=block;edgeStyle=elbowEdgeStyle;elbow=vertical;curved=0;rounded=0;" parent="1" source="SLl3Hjy-PF9EofsxqTcr-66" target="SLl3Hjy-PF9EofsxqTcr-187" edge="1">
          <mxGeometry x="0.0011" relative="1" as="geometry">
            <mxPoint x="940" y="225" as="sourcePoint" />
            <Array as="points">
              <mxPoint x="1020" y="240" />
              <mxPoint x="900" y="240" />
            </Array>
            <mxPoint as="offset" />
          </mxGeometry>
        </mxCell>
        <mxCell id="SLl3Hjy-PF9EofsxqTcr-189" value="" style="html=1;verticalAlign=bottom;endArrow=open;dashed=1;endSize=8;edgeStyle=elbowEdgeStyle;elbow=vertical;curved=0;rounded=0;" parent="1" source="SLl3Hjy-PF9EofsxqTcr-187" target="SLl3Hjy-PF9EofsxqTcr-66" edge="1">
          <mxGeometry relative="1" as="geometry">
            <mxPoint x="940" y="300.1" as="targetPoint" />
            <Array as="points">
              <mxPoint x="990" y="300" />
            </Array>
          </mxGeometry>
        </mxCell>
        <mxCell id="SLl3Hjy-PF9EofsxqTcr-190" value="[d in reservedDates]" style="text;align=center;fontStyle=1;verticalAlign=middle;spacingLeft=3;spacingRight=3;strokeColor=none;rotatable=0;points=[[0,0.5],[1,0.5]];portConstraint=eastwest;html=1;" parent="1" vertex="1">
          <mxGeometry x="310" y="620" width="80" height="26" as="geometry" />
        </mxCell>
        <mxCell id="SLl3Hjy-PF9EofsxqTcr-192" value="Add(d)" style="html=1;verticalAlign=bottom;endArrow=block;edgeStyle=elbowEdgeStyle;elbow=vertical;curved=0;rounded=0;" parent="1" source="SLl3Hjy-PF9EofsxqTcr-80" target="SLl3Hjy-PF9EofsxqTcr-191" edge="1">
          <mxGeometry x="0.0003" relative="1" as="geometry">
            <mxPoint x="380" y="730" as="sourcePoint" />
            <Array as="points">
              <mxPoint x="320" y="730" />
            </Array>
            <mxPoint as="offset" />
          </mxGeometry>
        </mxCell>
        <mxCell id="SLl3Hjy-PF9EofsxqTcr-193" value="" style="html=1;verticalAlign=bottom;endArrow=open;dashed=1;endSize=8;edgeStyle=elbowEdgeStyle;elbow=vertical;curved=0;rounded=0;" parent="1" source="SLl3Hjy-PF9EofsxqTcr-191" target="SLl3Hjy-PF9EofsxqTcr-80" edge="1">
          <mxGeometry x="0.0003" relative="1" as="geometry">
            <mxPoint x="380" y="805" as="targetPoint" />
            <Array as="points">
              <mxPoint x="780" y="800" />
            </Array>
            <mxPoint as="offset" />
          </mxGeometry>
        </mxCell>
        <mxCell id="SLl3Hjy-PF9EofsxqTcr-82" value="" style="html=1;verticalAlign=bottom;endArrow=open;dashed=1;endSize=8;edgeStyle=elbowEdgeStyle;elbow=vertical;curved=0;rounded=0;" parent="1" edge="1">
          <mxGeometry x="0.0975" relative="1" as="geometry">
            <mxPoint x="40.00142857142935" y="3550" as="targetPoint" />
            <Array as="points">
              <mxPoint x="140.93" y="3550" />
              <mxPoint x="130.93" y="3810" />
              <mxPoint x="120.93" y="3260" />
              <mxPoint x="160.93" y="2830" />
              <mxPoint x="120.93" y="2720" />
              <mxPoint x="190.93" y="2390" />
              <mxPoint x="210.93" y="2280" />
              <mxPoint x="230.93" y="2020" />
              <mxPoint x="200.93" y="1770" />
              <mxPoint x="180.93" y="1590" />
              <mxPoint x="190.93" y="1510" />
              <mxPoint x="190.93" y="1400" />
              <mxPoint x="110.93" y="1380" />
            </Array>
            <mxPoint as="offset" />
            <mxPoint x="235.93" y="3550" as="sourcePoint" />
          </mxGeometry>
        </mxCell>
        <mxCell id="aM9ryv3xv72pqoxQDRHE-1" value="Guest1ViewForm" style="shape=umlLifeline;perimeter=lifelinePerimeter;whiteSpace=wrap;html=1;container=0;dropTarget=0;collapsible=0;recursiveResize=0;outlineConnect=0;portConstraint=eastwest;newEdgeStyle={&quot;edgeStyle&quot;:&quot;elbowEdgeStyle&quot;,&quot;elbow&quot;:&quot;vertical&quot;,&quot;curved&quot;:0,&quot;rounded&quot;:0};" parent="1" vertex="1">
          <mxGeometry x="190" y="30" width="100" height="6290" as="geometry" />
        </mxCell>
        <mxCell id="SLl3Hjy-PF9EofsxqTcr-80" value="" style="html=1;points=[];perimeter=orthogonalPerimeter;outlineConnect=0;targetShapes=umlLifeline;portConstraint=eastwest;newEdgeStyle={&quot;edgeStyle&quot;:&quot;elbowEdgeStyle&quot;,&quot;elbow&quot;:&quot;vertical&quot;,&quot;curved&quot;:0,&quot;rounded&quot;:0};" parent="aM9ryv3xv72pqoxQDRHE-1" vertex="1">
          <mxGeometry x="45" y="60" width="10" height="3460" as="geometry" />
        </mxCell>
        <mxCell id="EvKE3HRrCoH5kTLzTVeY-150" value="" style="html=1;points=[];perimeter=orthogonalPerimeter;outlineConnect=0;targetShapes=umlLifeline;portConstraint=eastwest;newEdgeStyle={&quot;edgeStyle&quot;:&quot;elbowEdgeStyle&quot;,&quot;elbow&quot;:&quot;vertical&quot;,&quot;curved&quot;:0,&quot;rounded&quot;:0};" vertex="1" parent="aM9ryv3xv72pqoxQDRHE-1">
          <mxGeometry x="50" y="870" width="10" height="40" as="geometry" />
        </mxCell>
        <mxCell id="EvKE3HRrCoH5kTLzTVeY-151" value="User.NumOfAccommodationReservations = reservedDates.Count" style="html=1;align=left;spacingLeft=2;endArrow=block;rounded=0;edgeStyle=orthogonalEdgeStyle;curved=0;rounded=0;" edge="1" target="EvKE3HRrCoH5kTLzTVeY-150" parent="aM9ryv3xv72pqoxQDRHE-1">
          <mxGeometry relative="1" as="geometry">
            <mxPoint x="55" y="850" as="sourcePoint" />
            <Array as="points">
              <mxPoint x="85" y="880" />
            </Array>
          </mxGeometry>
        </mxCell>
        <mxCell id="SLl3Hjy-PF9EofsxqTcr-115" value="alt" style="shape=umlFrame;whiteSpace=wrap;html=1;pointerEvents=0;" parent="aM9ryv3xv72pqoxQDRHE-1" vertex="1">
          <mxGeometry x="-27.5" y="1400" width="440" height="890" as="geometry" />
        </mxCell>
        <mxCell id="SLl3Hjy-PF9EofsxqTcr-118" value="[User.Super]" style="text;align=center;fontStyle=1;verticalAlign=middle;spacingLeft=3;spacingRight=3;strokeColor=none;rotatable=0;points=[[0,0.5],[1,0.5]];portConstraint=eastwest;html=1;" parent="aM9ryv3xv72pqoxQDRHE-1" vertex="1">
          <mxGeometry x="62.5" y="1400" width="80" height="26" as="geometry" />
        </mxCell>
        <mxCell id="SLl3Hjy-PF9EofsxqTcr-119" value="" style="line;strokeWidth=1;fillColor=none;align=left;verticalAlign=middle;spacingTop=-1;spacingLeft=3;spacingRight=3;rotatable=0;labelPosition=right;points=[];portConstraint=eastwest;strokeColor=inherit;shadow=1;dashed=1;dashPattern=8 8;" parent="aM9ryv3xv72pqoxQDRHE-1" vertex="1">
          <mxGeometry x="-27.5" y="1960" width="430" height="8" as="geometry" />
        </mxCell>
        <mxCell id="SLl3Hjy-PF9EofsxqTcr-120" value="[else]" style="text;align=center;fontStyle=1;verticalAlign=middle;spacingLeft=3;spacingRight=3;strokeColor=none;rotatable=0;points=[[0,0.5],[1,0.5]];portConstraint=eastwest;html=1;" parent="aM9ryv3xv72pqoxQDRHE-1" vertex="1">
          <mxGeometry x="52.5" y="1970" width="80" height="26" as="geometry" />
        </mxCell>
        <mxCell id="SLl3Hjy-PF9EofsxqTcr-121" value="opt" style="shape=umlFrame;whiteSpace=wrap;html=1;pointerEvents=0;" parent="aM9ryv3xv72pqoxQDRHE-1" vertex="1">
          <mxGeometry x="-7.5" y="1440" width="410" height="510" as="geometry" />
        </mxCell>
        <mxCell id="SLl3Hjy-PF9EofsxqTcr-122" value="[(DateTime.Now - User.DateOfBecomingSuper).Days &amp;gt;= 365]" style="text;align=center;fontStyle=1;verticalAlign=middle;spacingLeft=3;spacingRight=3;strokeColor=none;rotatable=0;points=[[0,0.5],[1,0.5]];portConstraint=eastwest;html=1;" parent="aM9ryv3xv72pqoxQDRHE-1" vertex="1">
          <mxGeometry x="192.5" y="1450" width="80" height="26" as="geometry" />
        </mxCell>
        <mxCell id="SLl3Hjy-PF9EofsxqTcr-123" value="alt" style="shape=umlFrame;whiteSpace=wrap;html=1;pointerEvents=0;" parent="aM9ryv3xv72pqoxQDRHE-1" vertex="1">
          <mxGeometry x="2.5" y="1490" width="390" height="450" as="geometry" />
        </mxCell>
        <mxCell id="SLl3Hjy-PF9EofsxqTcr-124" value="" style="line;strokeWidth=1;fillColor=none;align=left;verticalAlign=middle;spacingTop=-1;spacingLeft=3;spacingRight=3;rotatable=0;labelPosition=right;points=[];portConstraint=eastwest;strokeColor=inherit;shadow=1;dashed=1;dashPattern=8 8;" parent="aM9ryv3xv72pqoxQDRHE-1" vertex="1">
          <mxGeometry x="2.5" y="1700" width="390" height="8" as="geometry" />
        </mxCell>
        <mxCell id="SLl3Hjy-PF9EofsxqTcr-125" value="[User.NumOfAccommodationReservations &amp;gt;= 10]" style="text;align=center;fontStyle=1;verticalAlign=middle;spacingLeft=3;spacingRight=3;strokeColor=none;rotatable=0;points=[[0,0.5],[1,0.5]];portConstraint=eastwest;html=1;" parent="aM9ryv3xv72pqoxQDRHE-1" vertex="1">
          <mxGeometry x="172.5" y="1490" width="80" height="26" as="geometry" />
        </mxCell>
        <mxCell id="SLl3Hjy-PF9EofsxqTcr-126" value="[else]" style="text;align=center;fontStyle=1;verticalAlign=middle;spacingLeft=3;spacingRight=3;strokeColor=none;rotatable=0;points=[[0,0.5],[1,0.5]];portConstraint=eastwest;html=1;" parent="aM9ryv3xv72pqoxQDRHE-1" vertex="1">
          <mxGeometry x="62.5" y="1708" width="80" height="26" as="geometry" />
        </mxCell>
        <mxCell id="SLl3Hjy-PF9EofsxqTcr-129" value="" style="html=1;points=[];perimeter=orthogonalPerimeter;outlineConnect=0;targetShapes=umlLifeline;portConstraint=eastwest;newEdgeStyle={&quot;edgeStyle&quot;:&quot;elbowEdgeStyle&quot;,&quot;elbow&quot;:&quot;vertical&quot;,&quot;curved&quot;:0,&quot;rounded&quot;:0};" parent="aM9ryv3xv72pqoxQDRHE-1" vertex="1">
          <mxGeometry x="52.5" y="1600" width="10" height="50.04" as="geometry" />
        </mxCell>
        <mxCell id="SLl3Hjy-PF9EofsxqTcr-130" value="UpdateGuestsFields(User.Super, &lt;br&gt;&lt;span style=&quot;white-space: pre;&quot;&gt; &lt;/span&gt;User.DateOfBecomingSuper.AddDays(365), 5, 0)" style="html=1;align=left;spacingLeft=2;endArrow=block;rounded=0;edgeStyle=orthogonalEdgeStyle;curved=0;rounded=0;" parent="aM9ryv3xv72pqoxQDRHE-1" target="SLl3Hjy-PF9EofsxqTcr-129" edge="1">
          <mxGeometry x="0.0055" relative="1" as="geometry">
            <mxPoint x="57.5" y="1590.04" as="sourcePoint" />
            <Array as="points">
              <mxPoint x="112.5" y="1590" />
              <mxPoint x="112.5" y="1620" />
            </Array>
            <mxPoint as="offset" />
          </mxGeometry>
        </mxCell>
        <mxCell id="SLl3Hjy-PF9EofsxqTcr-134" value="" style="html=1;points=[];perimeter=orthogonalPerimeter;outlineConnect=0;targetShapes=umlLifeline;portConstraint=eastwest;newEdgeStyle={&quot;edgeStyle&quot;:&quot;elbowEdgeStyle&quot;,&quot;elbow&quot;:&quot;vertical&quot;,&quot;curved&quot;:0,&quot;rounded&quot;:0};" parent="aM9ryv3xv72pqoxQDRHE-1" vertex="1">
          <mxGeometry x="52.5" y="1790.04" width="10" height="49.96" as="geometry" />
        </mxCell>
        <mxCell id="SLl3Hjy-PF9EofsxqTcr-135" value="UpdateGuestsFields(false, new DateTime(0001, 01, 01), &lt;br&gt;&lt;span style=&quot;white-space: pre;&quot;&gt; &lt;/span&gt;0, User.NumOfAccommodationReservations)" style="html=1;align=left;spacingLeft=2;endArrow=block;rounded=0;edgeStyle=orthogonalEdgeStyle;curved=0;rounded=0;" parent="aM9ryv3xv72pqoxQDRHE-1" target="SLl3Hjy-PF9EofsxqTcr-134" edge="1">
          <mxGeometry x="-0.0008" relative="1" as="geometry">
            <mxPoint x="57.5" y="1770.04" as="sourcePoint" />
            <Array as="points">
              <mxPoint x="122.5" y="1770" />
              <mxPoint x="122.5" y="1800" />
            </Array>
            <mxPoint as="offset" />
          </mxGeometry>
        </mxCell>
        <mxCell id="SLl3Hjy-PF9EofsxqTcr-136" value="opt" style="shape=umlFrame;whiteSpace=wrap;html=1;pointerEvents=0;" parent="aM9ryv3xv72pqoxQDRHE-1" vertex="1">
          <mxGeometry x="-7.5" y="2010" width="410" height="270" as="geometry" />
        </mxCell>
        <mxCell id="SLl3Hjy-PF9EofsxqTcr-138" value="[User.NumOfAccommodationReservations &amp;gt;= 10]" style="text;align=center;fontStyle=1;verticalAlign=middle;spacingLeft=3;spacingRight=3;strokeColor=none;rotatable=0;points=[[0,0.5],[1,0.5]];portConstraint=eastwest;html=1;" parent="aM9ryv3xv72pqoxQDRHE-1" vertex="1">
          <mxGeometry x="172.5" y="2010" width="80" height="26" as="geometry" />
        </mxCell>
        <mxCell id="SLl3Hjy-PF9EofsxqTcr-139" value="" style="html=1;points=[];perimeter=orthogonalPerimeter;outlineConnect=0;targetShapes=umlLifeline;portConstraint=eastwest;newEdgeStyle={&quot;edgeStyle&quot;:&quot;elbowEdgeStyle&quot;,&quot;elbow&quot;:&quot;vertical&quot;,&quot;curved&quot;:0,&quot;rounded&quot;:0};" parent="aM9ryv3xv72pqoxQDRHE-1" vertex="1">
          <mxGeometry x="52.5" y="2130" width="10" height="60" as="geometry" />
        </mxCell>
        <mxCell id="SLl3Hjy-PF9EofsxqTcr-140" value="UpdateGuestsFields(true, DateTime.Now, 5, 0)" style="html=1;align=left;spacingLeft=2;endArrow=block;rounded=0;edgeStyle=orthogonalEdgeStyle;curved=0;rounded=0;" parent="aM9ryv3xv72pqoxQDRHE-1" target="SLl3Hjy-PF9EofsxqTcr-139" edge="1">
          <mxGeometry relative="1" as="geometry">
            <mxPoint x="57.5" y="2110" as="sourcePoint" />
            <Array as="points">
              <mxPoint x="122.5" y="2110" />
              <mxPoint x="122.5" y="2140" />
            </Array>
          </mxGeometry>
        </mxCell>
        <mxCell id="EvKE3HRrCoH5kTLzTVeY-152" value="" style="html=1;points=[];perimeter=orthogonalPerimeter;outlineConnect=0;targetShapes=umlLifeline;portConstraint=eastwest;newEdgeStyle={&quot;edgeStyle&quot;:&quot;elbowEdgeStyle&quot;,&quot;elbow&quot;:&quot;vertical&quot;,&quot;curved&quot;:0,&quot;rounded&quot;:0};" vertex="1" parent="aM9ryv3xv72pqoxQDRHE-1">
          <mxGeometry x="50" y="1300" width="10" height="40" as="geometry" />
        </mxCell>
        <mxCell id="EvKE3HRrCoH5kTLzTVeY-153" value="UserName = User.Username" style="html=1;align=left;spacingLeft=2;endArrow=block;rounded=0;edgeStyle=orthogonalEdgeStyle;curved=0;rounded=0;" edge="1" target="EvKE3HRrCoH5kTLzTVeY-152" parent="aM9ryv3xv72pqoxQDRHE-1">
          <mxGeometry relative="1" as="geometry">
            <mxPoint x="55" y="1280" as="sourcePoint" />
            <Array as="points">
              <mxPoint x="85" y="1310" />
            </Array>
          </mxGeometry>
        </mxCell>
        <mxCell id="EvKE3HRrCoH5kTLzTVeY-156" value="" style="html=1;points=[];perimeter=orthogonalPerimeter;outlineConnect=0;targetShapes=umlLifeline;portConstraint=eastwest;newEdgeStyle={&quot;edgeStyle&quot;:&quot;elbowEdgeStyle&quot;,&quot;elbow&quot;:&quot;vertical&quot;,&quot;curved&quot;:0,&quot;rounded&quot;:0};" vertex="1" parent="aM9ryv3xv72pqoxQDRHE-1">
          <mxGeometry x="50" y="2600" width="10" height="40" as="geometry" />
        </mxCell>
        <mxCell id="EvKE3HRrCoH5kTLzTVeY-157" value="Score = User.Score.ToString()" style="html=1;align=left;spacingLeft=2;endArrow=block;rounded=0;edgeStyle=orthogonalEdgeStyle;curved=0;rounded=0;" edge="1" target="EvKE3HRrCoH5kTLzTVeY-156" parent="aM9ryv3xv72pqoxQDRHE-1">
          <mxGeometry relative="1" as="geometry">
            <mxPoint x="55" y="2580" as="sourcePoint" />
            <Array as="points">
              <mxPoint x="85" y="2610" />
            </Array>
          </mxGeometry>
        </mxCell>
        <mxCell id="EvKE3HRrCoH5kTLzTVeY-172" value="" style="html=1;points=[];perimeter=orthogonalPerimeter;outlineConnect=0;targetShapes=umlLifeline;portConstraint=eastwest;newEdgeStyle={&quot;edgeStyle&quot;:&quot;elbowEdgeStyle&quot;,&quot;elbow&quot;:&quot;vertical&quot;,&quot;curved&quot;:0,&quot;rounded&quot;:0};" vertex="1" parent="aM9ryv3xv72pqoxQDRHE-1">
          <mxGeometry x="52.5" y="2750" width="10" height="20" as="geometry" />
        </mxCell>
        <mxCell id="EvKE3HRrCoH5kTLzTVeY-173" value="timer.Interval = TimeSpan.FromSeconds(1)" style="html=1;align=left;spacingLeft=2;endArrow=block;rounded=0;edgeStyle=orthogonalEdgeStyle;curved=0;rounded=0;" edge="1" target="EvKE3HRrCoH5kTLzTVeY-172" parent="aM9ryv3xv72pqoxQDRHE-1">
          <mxGeometry relative="1" as="geometry">
            <mxPoint x="57.5" y="2740" as="sourcePoint" />
            <Array as="points">
              <mxPoint x="88" y="2740" />
              <mxPoint x="88" y="2760" />
            </Array>
          </mxGeometry>
        </mxCell>
        <mxCell id="EvKE3HRrCoH5kTLzTVeY-224" value="" style="html=1;points=[];perimeter=orthogonalPerimeter;outlineConnect=0;targetShapes=umlLifeline;portConstraint=eastwest;newEdgeStyle={&quot;edgeStyle&quot;:&quot;elbowEdgeStyle&quot;,&quot;elbow&quot;:&quot;vertical&quot;,&quot;curved&quot;:0,&quot;rounded&quot;:0};" vertex="1" parent="aM9ryv3xv72pqoxQDRHE-1">
          <mxGeometry x="50" y="3160" width="10" height="40" as="geometry" />
        </mxCell>
        <mxCell id="EvKE3HRrCoH5kTLzTVeY-225" value="Score = User.Score.ToString()" style="html=1;align=left;spacingLeft=2;endArrow=block;rounded=0;edgeStyle=orthogonalEdgeStyle;curved=0;rounded=0;" edge="1" target="EvKE3HRrCoH5kTLzTVeY-224" parent="aM9ryv3xv72pqoxQDRHE-1">
          <mxGeometry relative="1" as="geometry">
            <mxPoint x="55" y="3140" as="sourcePoint" />
            <Array as="points">
              <mxPoint x="85" y="3170" />
            </Array>
          </mxGeometry>
        </mxCell>
        <mxCell id="EvKE3HRrCoH5kTLzTVeY-226" value="" style="html=1;points=[];perimeter=orthogonalPerimeter;outlineConnect=0;targetShapes=umlLifeline;portConstraint=eastwest;newEdgeStyle={&quot;edgeStyle&quot;:&quot;elbowEdgeStyle&quot;,&quot;elbow&quot;:&quot;vertical&quot;,&quot;curved&quot;:0,&quot;rounded&quot;:0};" vertex="1" parent="aM9ryv3xv72pqoxQDRHE-1">
          <mxGeometry x="50" y="3290" width="10" height="40" as="geometry" />
        </mxCell>
        <mxCell id="EvKE3HRrCoH5kTLzTVeY-227" value="timer.Start()" style="html=1;align=left;spacingLeft=2;endArrow=block;rounded=0;edgeStyle=orthogonalEdgeStyle;curved=0;rounded=0;" edge="1" target="EvKE3HRrCoH5kTLzTVeY-226" parent="aM9ryv3xv72pqoxQDRHE-1">
          <mxGeometry relative="1" as="geometry">
            <mxPoint x="55" y="3270" as="sourcePoint" />
            <Array as="points">
              <mxPoint x="85" y="3300" />
            </Array>
          </mxGeometry>
        </mxCell>
        <mxCell id="EvKE3HRrCoH5kTLzTVeY-160" value="DispatcherTime" style="shape=umlLifeline;perimeter=lifelinePerimeter;whiteSpace=wrap;html=1;container=1;dropTarget=0;collapsible=0;recursiveResize=0;outlineConnect=0;portConstraint=eastwest;newEdgeStyle={&quot;edgeStyle&quot;:&quot;elbowEdgeStyle&quot;,&quot;elbow&quot;:&quot;vertical&quot;,&quot;curved&quot;:0,&quot;rounded&quot;:0};" vertex="1" parent="1">
          <mxGeometry x="450" y="2670" width="100" height="880" as="geometry" />
        </mxCell>
        <mxCell id="EvKE3HRrCoH5kTLzTVeY-166" value="" style="html=1;points=[];perimeter=orthogonalPerimeter;outlineConnect=0;targetShapes=umlLifeline;portConstraint=eastwest;newEdgeStyle={&quot;edgeStyle&quot;:&quot;elbowEdgeStyle&quot;,&quot;elbow&quot;:&quot;vertical&quot;,&quot;curved&quot;:0,&quot;rounded&quot;:0};" vertex="1" parent="EvKE3HRrCoH5kTLzTVeY-160">
          <mxGeometry x="45" y="60" width="10" height="20" as="geometry" />
        </mxCell>
        <mxCell id="EvKE3HRrCoH5kTLzTVeY-167" value="&amp;lt;&amp;lt;create&amp;gt;&amp;gt;" style="html=1;verticalAlign=bottom;endArrow=block;edgeStyle=elbowEdgeStyle;elbow=vertical;curved=0;rounded=0;" edge="1" target="EvKE3HRrCoH5kTLzTVeY-166" parent="1" source="SLl3Hjy-PF9EofsxqTcr-80">
          <mxGeometry relative="1" as="geometry">
            <mxPoint x="420" y="2730" as="sourcePoint" />
            <Array as="points">
              <mxPoint x="410" y="2730" />
            </Array>
          </mxGeometry>
        </mxCell>
        <mxCell id="EvKE3HRrCoH5kTLzTVeY-168" value="timer" style="html=1;verticalAlign=bottom;endArrow=open;dashed=1;endSize=8;edgeStyle=elbowEdgeStyle;elbow=vertical;curved=0;rounded=0;" edge="1" source="EvKE3HRrCoH5kTLzTVeY-166" parent="1" target="aM9ryv3xv72pqoxQDRHE-1">
          <mxGeometry x="-0.0018" relative="1" as="geometry">
            <mxPoint x="420" y="2805" as="targetPoint" />
            <Array as="points">
              <mxPoint x="440" y="2750" />
              <mxPoint x="440" y="2770" />
              <mxPoint x="350" y="2810" />
            </Array>
            <mxPoint as="offset" />
          </mxGeometry>
        </mxCell>
        <mxCell id="EvKE3HRrCoH5kTLzTVeY-116" value="" style="html=1;points=[];perimeter=orthogonalPerimeter;outlineConnect=0;targetShapes=umlLifeline;portConstraint=eastwest;newEdgeStyle={&quot;edgeStyle&quot;:&quot;elbowEdgeStyle&quot;,&quot;elbow&quot;:&quot;vertical&quot;,&quot;curved&quot;:0,&quot;rounded&quot;:0};" vertex="1" parent="1">
          <mxGeometry x="610" y="5830" width="10" height="220" as="geometry" />
        </mxCell>
        <mxCell id="EvKE3HRrCoH5kTLzTVeY-118" value="Update(User)" style="html=1;verticalAlign=bottom;endArrow=block;edgeStyle=elbowEdgeStyle;elbow=vertical;curved=0;rounded=0;" edge="1" parent="1" source="EvKE3HRrCoH5kTLzTVeY-149" target="EvKE3HRrCoH5kTLzTVeY-116">
          <mxGeometry relative="1" as="geometry">
            <mxPoint x="103.59000000000015" y="5910.2" as="sourcePoint" />
            <Array as="points">
              <mxPoint x="572.5" y="5830" />
              <mxPoint x="362.5" y="5830" />
            </Array>
          </mxGeometry>
        </mxCell>
        <mxCell id="EvKE3HRrCoH5kTLzTVeY-119" value="" style="html=1;verticalAlign=bottom;endArrow=open;dashed=1;endSize=8;edgeStyle=elbowEdgeStyle;elbow=vertical;curved=0;rounded=0;" edge="1" parent="1" source="EvKE3HRrCoH5kTLzTVeY-116" target="EvKE3HRrCoH5kTLzTVeY-149">
          <mxGeometry relative="1" as="geometry">
            <mxPoint x="102.5" y="6050" as="targetPoint" />
            <Array as="points">
              <mxPoint x="562.5" y="6050" />
              <mxPoint x="172.5" y="6040" />
              <mxPoint x="172.5" y="6060" />
              <mxPoint x="212.5" y="6052" />
              <mxPoint x="212.5" y="6040" />
              <mxPoint x="612.5" y="6050" />
              <mxPoint x="352.5" y="6000" />
            </Array>
          </mxGeometry>
        </mxCell>
        <mxCell id="EvKE3HRrCoH5kTLzTVeY-120" value="Update(User)" style="html=1;verticalAlign=bottom;endArrow=block;edgeStyle=elbowEdgeStyle;elbow=vertical;curved=0;rounded=0;" edge="1" parent="1" source="EvKE3HRrCoH5kTLzTVeY-116" target="EvKE3HRrCoH5kTLzTVeY-117">
          <mxGeometry relative="1" as="geometry">
            <mxPoint x="687.5" y="5860" as="sourcePoint" />
            <Array as="points">
              <mxPoint x="727.5" y="5840" />
              <mxPoint x="677.5" y="5870" />
            </Array>
          </mxGeometry>
        </mxCell>
        <mxCell id="EvKE3HRrCoH5kTLzTVeY-121" value="" style="html=1;verticalAlign=bottom;endArrow=open;dashed=1;endSize=8;edgeStyle=elbowEdgeStyle;elbow=vertical;curved=0;rounded=0;" edge="1" parent="1" source="EvKE3HRrCoH5kTLzTVeY-117" target="EvKE3HRrCoH5kTLzTVeY-116">
          <mxGeometry relative="1" as="geometry">
            <mxPoint x="687.5" y="5935" as="targetPoint" />
            <Array as="points">
              <mxPoint x="727.5" y="6040" />
              <mxPoint x="687.5" y="5935" />
            </Array>
          </mxGeometry>
        </mxCell>
        <mxCell id="EvKE3HRrCoH5kTLzTVeY-131" value="" style="html=1;points=[];perimeter=orthogonalPerimeter;outlineConnect=0;targetShapes=umlLifeline;portConstraint=eastwest;newEdgeStyle={&quot;edgeStyle&quot;:&quot;elbowEdgeStyle&quot;,&quot;elbow&quot;:&quot;vertical&quot;,&quot;curved&quot;:0,&quot;rounded&quot;:0};" vertex="1" parent="1">
          <mxGeometry x="610" y="5360" width="10" height="250" as="geometry" />
        </mxCell>
        <mxCell id="EvKE3HRrCoH5kTLzTVeY-132" value="GetById(userId)" style="html=1;verticalAlign=bottom;endArrow=block;edgeStyle=elbowEdgeStyle;elbow=vertical;curved=0;rounded=0;" edge="1" parent="1" source="EvKE3HRrCoH5kTLzTVeY-149" target="EvKE3HRrCoH5kTLzTVeY-131">
          <mxGeometry relative="1" as="geometry">
            <mxPoint x="74.3599999999999" y="5384.4800000000005" as="sourcePoint" />
            <Array as="points">
              <mxPoint x="562.5" y="5360" />
            </Array>
          </mxGeometry>
        </mxCell>
        <mxCell id="EvKE3HRrCoH5kTLzTVeY-133" value="User" style="html=1;verticalAlign=bottom;endArrow=open;dashed=1;endSize=8;edgeStyle=elbowEdgeStyle;elbow=vertical;curved=0;rounded=0;" edge="1" parent="1" source="EvKE3HRrCoH5kTLzTVeY-131" target="EvKE3HRrCoH5kTLzTVeY-149">
          <mxGeometry relative="1" as="geometry">
            <mxPoint x="72.5" y="5607" as="targetPoint" />
            <Array as="points">
              <mxPoint x="542.5" y="5610" />
              <mxPoint x="525.5" y="5607" />
              <mxPoint x="595.5" y="5620" />
              <mxPoint x="375.5" y="5610" />
              <mxPoint x="365.5" y="5525" />
            </Array>
          </mxGeometry>
        </mxCell>
        <mxCell id="EvKE3HRrCoH5kTLzTVeY-135" value="GetById(userId)" style="html=1;verticalAlign=bottom;endArrow=block;edgeStyle=elbowEdgeStyle;elbow=vertical;curved=0;rounded=0;" edge="1" parent="1" target="EvKE3HRrCoH5kTLzTVeY-134" source="EvKE3HRrCoH5kTLzTVeY-131">
          <mxGeometry relative="1" as="geometry">
            <mxPoint x="657.5" y="5370" as="sourcePoint" />
            <Array as="points">
              <mxPoint x="747.5" y="5370" />
              <mxPoint x="647.5" y="5380" />
            </Array>
          </mxGeometry>
        </mxCell>
        <mxCell id="EvKE3HRrCoH5kTLzTVeY-136" value="User" style="html=1;verticalAlign=bottom;endArrow=open;dashed=1;endSize=8;edgeStyle=elbowEdgeStyle;elbow=vertical;curved=0;rounded=0;" edge="1" parent="1" source="EvKE3HRrCoH5kTLzTVeY-134" target="EvKE3HRrCoH5kTLzTVeY-131">
          <mxGeometry relative="1" as="geometry">
            <mxPoint x="657.5" y="5600" as="targetPoint" />
            <Array as="points">
              <mxPoint x="737.5" y="5600" />
              <mxPoint x="687.5" y="5600" />
              <mxPoint x="657.5" y="5600" />
            </Array>
          </mxGeometry>
        </mxCell>
        <mxCell id="EvKE3HRrCoH5kTLzTVeY-9" value="Update(User)" style="html=1;verticalAlign=bottom;endArrow=block;edgeStyle=elbowEdgeStyle;elbow=vertical;curved=0;rounded=0;" edge="1" parent="1" source="EvKE3HRrCoH5kTLzTVeY-5" target="EvKE3HRrCoH5kTLzTVeY-6">
          <mxGeometry relative="1" as="geometry">
            <mxPoint x="692.5" y="4760" as="sourcePoint" />
            <Array as="points">
              <mxPoint x="732.5" y="4740" />
              <mxPoint x="682.5" y="4770" />
            </Array>
          </mxGeometry>
        </mxCell>
        <mxCell id="EvKE3HRrCoH5kTLzTVeY-10" value="" style="html=1;verticalAlign=bottom;endArrow=open;dashed=1;endSize=8;edgeStyle=elbowEdgeStyle;elbow=vertical;curved=0;rounded=0;" edge="1" parent="1" source="EvKE3HRrCoH5kTLzTVeY-6" target="EvKE3HRrCoH5kTLzTVeY-5">
          <mxGeometry relative="1" as="geometry">
            <mxPoint x="692.5" y="4835" as="targetPoint" />
            <Array as="points">
              <mxPoint x="732.5" y="4940" />
              <mxPoint x="692.5" y="4835" />
            </Array>
          </mxGeometry>
        </mxCell>
        <mxCell id="EvKE3HRrCoH5kTLzTVeY-7" value="Update(User)" style="html=1;verticalAlign=bottom;endArrow=block;edgeStyle=elbowEdgeStyle;elbow=vertical;curved=0;rounded=0;" edge="1" parent="1" target="EvKE3HRrCoH5kTLzTVeY-5" source="EvKE3HRrCoH5kTLzTVeY-147">
          <mxGeometry relative="1" as="geometry">
            <mxPoint x="103.59000000000015" y="4781.01" as="sourcePoint" />
            <Array as="points">
              <mxPoint x="572.5" y="4730" />
              <mxPoint x="362.5" y="4730" />
            </Array>
          </mxGeometry>
        </mxCell>
        <mxCell id="EvKE3HRrCoH5kTLzTVeY-8" value="" style="html=1;verticalAlign=bottom;endArrow=open;dashed=1;endSize=8;edgeStyle=elbowEdgeStyle;elbow=vertical;curved=0;rounded=0;" edge="1" parent="1" source="EvKE3HRrCoH5kTLzTVeY-5" target="EvKE3HRrCoH5kTLzTVeY-147">
          <mxGeometry relative="1" as="geometry">
            <mxPoint x="102.5" y="4950" as="targetPoint" />
            <Array as="points">
              <mxPoint x="602.5" y="4950" />
              <mxPoint x="572.5" y="4940" />
              <mxPoint x="172.5" y="4940" />
              <mxPoint x="172.5" y="4960" />
              <mxPoint x="212.5" y="4952" />
              <mxPoint x="212.5" y="4940" />
              <mxPoint x="612.5" y="4950" />
              <mxPoint x="352.5" y="4900" />
            </Array>
          </mxGeometry>
        </mxCell>
        <mxCell id="EvKE3HRrCoH5kTLzTVeY-16" value="FindIndex()" style="html=1;verticalAlign=bottom;endArrow=block;edgeStyle=elbowEdgeStyle;elbow=vertical;curved=0;rounded=0;exitX=0.885;exitY=0.445;exitDx=0;exitDy=0;exitPerimeter=0;" edge="1" parent="1" target="EvKE3HRrCoH5kTLzTVeY-14" source="EvKE3HRrCoH5kTLzTVeY-6">
          <mxGeometry x="-0.0014" relative="1" as="geometry">
            <mxPoint x="882.5" y="4830" as="sourcePoint" />
            <Array as="points" />
            <mxPoint as="offset" />
          </mxGeometry>
        </mxCell>
        <mxCell id="EvKE3HRrCoH5kTLzTVeY-17" value="" style="html=1;verticalAlign=bottom;endArrow=open;dashed=1;endSize=8;edgeStyle=elbowEdgeStyle;elbow=vertical;curved=0;rounded=0;" edge="1" parent="1" source="EvKE3HRrCoH5kTLzTVeY-14" target="EvKE3HRrCoH5kTLzTVeY-6">
          <mxGeometry relative="1" as="geometry">
            <mxPoint x="882.5" y="4890" as="targetPoint" />
            <Array as="points">
              <mxPoint x="980" y="4890" />
              <mxPoint x="962.5" y="4890" />
            </Array>
          </mxGeometry>
        </mxCell>
        <mxCell id="EvKE3HRrCoH5kTLzTVeY-18" value="index" style="edgeLabel;html=1;align=center;verticalAlign=middle;resizable=0;points=[];" vertex="1" connectable="0" parent="EvKE3HRrCoH5kTLzTVeY-17">
          <mxGeometry x="-0.0543" y="-1" relative="1" as="geometry">
            <mxPoint x="-8" y="-9" as="offset" />
          </mxGeometry>
        </mxCell>
        <mxCell id="EvKE3HRrCoH5kTLzTVeY-64" value="GetById(userId)" style="html=1;verticalAlign=bottom;endArrow=block;edgeStyle=elbowEdgeStyle;elbow=vertical;curved=0;rounded=0;" edge="1" parent="1" target="EvKE3HRrCoH5kTLzTVeY-63" source="EvKE3HRrCoH5kTLzTVeY-147">
          <mxGeometry relative="1" as="geometry">
            <mxPoint x="71.3599999999999" y="4278.32" as="sourcePoint" />
            <Array as="points">
              <mxPoint x="580" y="4260" />
              <mxPoint x="572.5" y="4260" />
            </Array>
          </mxGeometry>
        </mxCell>
        <mxCell id="EvKE3HRrCoH5kTLzTVeY-65" value="User" style="html=1;verticalAlign=bottom;endArrow=open;dashed=1;endSize=8;edgeStyle=elbowEdgeStyle;elbow=vertical;curved=0;rounded=0;" edge="1" parent="1" source="EvKE3HRrCoH5kTLzTVeY-63" target="EvKE3HRrCoH5kTLzTVeY-147">
          <mxGeometry relative="1" as="geometry">
            <mxPoint x="69.5" y="4507" as="targetPoint" />
            <Array as="points">
              <mxPoint x="582.5" y="4510" />
              <mxPoint x="592.5" y="4520" />
              <mxPoint x="372.5" y="4510" />
              <mxPoint x="362.5" y="4425" />
            </Array>
          </mxGeometry>
        </mxCell>
        <mxCell id="EvKE3HRrCoH5kTLzTVeY-67" value="GetById(userId)" style="html=1;verticalAlign=bottom;endArrow=block;edgeStyle=elbowEdgeStyle;elbow=vertical;curved=0;rounded=0;" edge="1" parent="1" target="EvKE3HRrCoH5kTLzTVeY-66" source="EvKE3HRrCoH5kTLzTVeY-63">
          <mxGeometry relative="1" as="geometry">
            <mxPoint x="662.5" y="4270" as="sourcePoint" />
            <Array as="points">
              <mxPoint x="752.5" y="4270" />
              <mxPoint x="652.5" y="4280" />
            </Array>
          </mxGeometry>
        </mxCell>
        <mxCell id="EvKE3HRrCoH5kTLzTVeY-68" value="User" style="html=1;verticalAlign=bottom;endArrow=open;dashed=1;endSize=8;edgeStyle=elbowEdgeStyle;elbow=vertical;curved=0;rounded=0;" edge="1" parent="1" source="EvKE3HRrCoH5kTLzTVeY-66" target="EvKE3HRrCoH5kTLzTVeY-63">
          <mxGeometry relative="1" as="geometry">
            <mxPoint x="663" y="4500" as="targetPoint" />
            <Array as="points">
              <mxPoint x="742.5" y="4500" />
              <mxPoint x="692.5" y="4500" />
              <mxPoint x="662.5" y="4500" />
            </Array>
          </mxGeometry>
        </mxCell>
        <mxCell id="EvKE3HRrCoH5kTLzTVeY-73" value="Add(u)" style="html=1;verticalAlign=bottom;endArrow=block;edgeStyle=elbowEdgeStyle;elbow=vertical;curved=0;rounded=0;" edge="1" parent="1" source="EvKE3HRrCoH5kTLzTVeY-66" target="EvKE3HRrCoH5kTLzTVeY-62">
          <mxGeometry x="0.0011" relative="1" as="geometry">
            <mxPoint x="992.5" y="4355" as="sourcePoint" />
            <Array as="points">
              <mxPoint x="1030" y="4370" />
            </Array>
            <mxPoint as="offset" />
          </mxGeometry>
        </mxCell>
        <mxCell id="EvKE3HRrCoH5kTLzTVeY-74" value="" style="html=1;verticalAlign=bottom;endArrow=open;dashed=1;endSize=8;edgeStyle=elbowEdgeStyle;elbow=vertical;curved=0;rounded=0;" edge="1" parent="1" source="EvKE3HRrCoH5kTLzTVeY-62" target="EvKE3HRrCoH5kTLzTVeY-66">
          <mxGeometry relative="1" as="geometry">
            <mxPoint x="992.5" y="4430.1" as="targetPoint" />
            <Array as="points">
              <mxPoint x="1020" y="4430" />
            </Array>
          </mxGeometry>
        </mxCell>
        <mxCell id="EvKE3HRrCoH5kTLzTVeY-211" value="" style="html=1;points=[];perimeter=orthogonalPerimeter;outlineConnect=0;targetShapes=umlLifeline;portConstraint=eastwest;newEdgeStyle={&quot;edgeStyle&quot;:&quot;elbowEdgeStyle&quot;,&quot;elbow&quot;:&quot;vertical&quot;,&quot;curved&quot;:0,&quot;rounded&quot;:0};" vertex="1" parent="1">
          <mxGeometry x="605" y="2850" width="10" height="250" as="geometry" />
        </mxCell>
        <mxCell id="EvKE3HRrCoH5kTLzTVeY-212" value="" style="html=1;points=[];perimeter=orthogonalPerimeter;outlineConnect=0;targetShapes=umlLifeline;portConstraint=eastwest;newEdgeStyle={&quot;edgeStyle&quot;:&quot;elbowEdgeStyle&quot;,&quot;elbow&quot;:&quot;vertical&quot;,&quot;curved&quot;:0,&quot;rounded&quot;:0};" vertex="1" parent="1">
          <mxGeometry x="1035" y="2960" width="10" height="60" as="geometry" />
        </mxCell>
        <mxCell id="EvKE3HRrCoH5kTLzTVeY-213" value="GetById(userId)" style="html=1;verticalAlign=bottom;endArrow=block;edgeStyle=elbowEdgeStyle;elbow=vertical;curved=0;rounded=0;" edge="1" parent="1" target="EvKE3HRrCoH5kTLzTVeY-211" source="SLl3Hjy-PF9EofsxqTcr-80">
          <mxGeometry relative="1" as="geometry">
            <mxPoint x="250" y="2850" as="sourcePoint" />
            <Array as="points">
              <mxPoint x="300" y="2850" />
            </Array>
          </mxGeometry>
        </mxCell>
        <mxCell id="EvKE3HRrCoH5kTLzTVeY-214" value="User" style="html=1;verticalAlign=bottom;endArrow=open;dashed=1;endSize=8;edgeStyle=elbowEdgeStyle;elbow=vertical;curved=0;rounded=0;" edge="1" parent="1" source="EvKE3HRrCoH5kTLzTVeY-211" target="SLl3Hjy-PF9EofsxqTcr-80">
          <mxGeometry relative="1" as="geometry">
            <mxPoint x="250" y="3100" as="targetPoint" />
            <Array as="points">
              <mxPoint x="320" y="3100" />
              <mxPoint x="310" y="3015" />
            </Array>
          </mxGeometry>
        </mxCell>
        <mxCell id="EvKE3HRrCoH5kTLzTVeY-216" value="GetById(userId)" style="html=1;verticalAlign=bottom;endArrow=block;edgeStyle=elbowEdgeStyle;elbow=vertical;curved=0;rounded=0;" edge="1" parent="1" target="EvKE3HRrCoH5kTLzTVeY-215">
          <mxGeometry relative="1" as="geometry">
            <mxPoint x="609" y="2860" as="sourcePoint" />
            <Array as="points">
              <mxPoint x="700" y="2860" />
              <mxPoint x="600" y="2870" />
            </Array>
          </mxGeometry>
        </mxCell>
        <mxCell id="EvKE3HRrCoH5kTLzTVeY-217" value="User" style="html=1;verticalAlign=bottom;endArrow=open;dashed=1;endSize=8;edgeStyle=elbowEdgeStyle;elbow=vertical;curved=0;rounded=0;" edge="1" parent="1" source="EvKE3HRrCoH5kTLzTVeY-215">
          <mxGeometry relative="1" as="geometry">
            <mxPoint x="609" y="3090" as="targetPoint" />
            <Array as="points">
              <mxPoint x="690" y="3090" />
              <mxPoint x="640" y="3090" />
              <mxPoint x="610" y="3090" />
            </Array>
          </mxGeometry>
        </mxCell>
        <mxCell id="EvKE3HRrCoH5kTLzTVeY-218" value="loop" style="shape=umlFrame;whiteSpace=wrap;html=1;pointerEvents=0;" vertex="1" parent="1">
          <mxGeometry x="720" y="2880" width="370" height="180" as="geometry" />
        </mxCell>
        <mxCell id="EvKE3HRrCoH5kTLzTVeY-219" value="opt" style="shape=umlFrame;whiteSpace=wrap;html=1;pointerEvents=0;" vertex="1" parent="1">
          <mxGeometry x="740" y="2920" width="340" height="130" as="geometry" />
        </mxCell>
        <mxCell id="EvKE3HRrCoH5kTLzTVeY-220" value="[u.Id == id]" style="text;align=center;fontStyle=1;verticalAlign=middle;spacingLeft=3;spacingRight=3;strokeColor=none;rotatable=0;points=[[0,0.5],[1,0.5]];portConstraint=eastwest;html=1;" vertex="1" parent="1">
          <mxGeometry x="800" y="2920" width="80" height="26" as="geometry" />
        </mxCell>
        <mxCell id="EvKE3HRrCoH5kTLzTVeY-221" value="[u in _users]" style="text;align=center;fontStyle=1;verticalAlign=middle;spacingLeft=3;spacingRight=3;strokeColor=none;rotatable=0;points=[[0,0.5],[1,0.5]];portConstraint=eastwest;html=1;" vertex="1" parent="1">
          <mxGeometry x="790" y="2880" width="80" height="26" as="geometry" />
        </mxCell>
        <mxCell id="EvKE3HRrCoH5kTLzTVeY-222" value="Add(u)" style="html=1;verticalAlign=bottom;endArrow=block;edgeStyle=elbowEdgeStyle;elbow=vertical;curved=0;rounded=0;" edge="1" parent="1" source="EvKE3HRrCoH5kTLzTVeY-215" target="EvKE3HRrCoH5kTLzTVeY-212">
          <mxGeometry x="0.0011" relative="1" as="geometry">
            <mxPoint x="940" y="2945" as="sourcePoint" />
            <Array as="points">
              <mxPoint x="1020" y="2960" />
              <mxPoint x="900" y="2960" />
            </Array>
            <mxPoint as="offset" />
          </mxGeometry>
        </mxCell>
        <mxCell id="EvKE3HRrCoH5kTLzTVeY-223" value="" style="html=1;verticalAlign=bottom;endArrow=open;dashed=1;endSize=8;edgeStyle=elbowEdgeStyle;elbow=vertical;curved=0;rounded=0;" edge="1" parent="1" source="EvKE3HRrCoH5kTLzTVeY-212" target="EvKE3HRrCoH5kTLzTVeY-215">
          <mxGeometry relative="1" as="geometry">
            <mxPoint x="940" y="3020.1" as="targetPoint" />
            <Array as="points">
              <mxPoint x="980" y="3020" />
            </Array>
          </mxGeometry>
        </mxCell>
        <mxCell id="SLl3Hjy-PF9EofsxqTcr-145" value="Update(User)" style="html=1;verticalAlign=bottom;endArrow=block;edgeStyle=elbowEdgeStyle;elbow=vertical;curved=0;rounded=0;" parent="1" source="SLl3Hjy-PF9EofsxqTcr-141" target="SLl3Hjy-PF9EofsxqTcr-144" edge="1">
          <mxGeometry relative="1" as="geometry">
            <mxPoint x="692.5" y="2400" as="sourcePoint" />
            <Array as="points">
              <mxPoint x="880" y="2370" />
              <mxPoint x="732.5" y="2380" />
              <mxPoint x="682.5" y="2410" />
            </Array>
          </mxGeometry>
        </mxCell>
        <mxCell id="SLl3Hjy-PF9EofsxqTcr-146" value="" style="html=1;verticalAlign=bottom;endArrow=open;dashed=1;endSize=8;edgeStyle=elbowEdgeStyle;elbow=vertical;curved=0;rounded=0;" parent="1" source="SLl3Hjy-PF9EofsxqTcr-144" target="SLl3Hjy-PF9EofsxqTcr-141" edge="1">
          <mxGeometry relative="1" as="geometry">
            <mxPoint x="692.5" y="2475" as="targetPoint" />
            <Array as="points">
              <mxPoint x="732.5" y="2580" />
              <mxPoint x="692.5" y="2475" />
            </Array>
          </mxGeometry>
        </mxCell>
        <mxCell id="SLl3Hjy-PF9EofsxqTcr-142" value="Update(User)" style="html=1;verticalAlign=bottom;endArrow=block;edgeStyle=elbowEdgeStyle;elbow=vertical;curved=0;rounded=0;" parent="1" source="SLl3Hjy-PF9EofsxqTcr-80" target="SLl3Hjy-PF9EofsxqTcr-141" edge="1">
          <mxGeometry relative="1" as="geometry">
            <mxPoint x="270" y="2370" as="sourcePoint" />
            <Array as="points">
              <mxPoint x="362.5" y="2370" />
            </Array>
          </mxGeometry>
        </mxCell>
        <mxCell id="SLl3Hjy-PF9EofsxqTcr-143" value="" style="html=1;verticalAlign=bottom;endArrow=open;dashed=1;endSize=8;edgeStyle=elbowEdgeStyle;elbow=vertical;curved=0;rounded=0;" parent="1" source="SLl3Hjy-PF9EofsxqTcr-141" target="SLl3Hjy-PF9EofsxqTcr-80" edge="1">
          <mxGeometry relative="1" as="geometry">
            <mxPoint x="260" y="2590" as="targetPoint" />
            <Array as="points">
              <mxPoint x="300" y="2590" />
              <mxPoint x="612.5" y="2590" />
              <mxPoint x="352.5" y="2540" />
            </Array>
          </mxGeometry>
        </mxCell>
        <mxCell id="SLl3Hjy-PF9EofsxqTcr-206" value="FindIndex()" style="html=1;verticalAlign=bottom;endArrow=block;edgeStyle=elbowEdgeStyle;elbow=vertical;curved=0;rounded=0;" parent="1" target="SLl3Hjy-PF9EofsxqTcr-204" edge="1" source="SLl3Hjy-PF9EofsxqTcr-107">
          <mxGeometry x="-0.0014" relative="1" as="geometry">
            <mxPoint x="1000" y="1090" as="sourcePoint" />
            <Array as="points">
              <mxPoint x="1030" y="1090" />
            </Array>
            <mxPoint as="offset" />
          </mxGeometry>
        </mxCell>
        <mxCell id="SLl3Hjy-PF9EofsxqTcr-207" value="" style="html=1;verticalAlign=bottom;endArrow=open;dashed=1;endSize=8;edgeStyle=elbowEdgeStyle;elbow=vertical;curved=0;rounded=0;" parent="1" source="SLl3Hjy-PF9EofsxqTcr-204" edge="1" target="SLl3Hjy-PF9EofsxqTcr-107">
          <mxGeometry relative="1" as="geometry">
            <mxPoint x="880" y="1150" as="targetPoint" />
            <Array as="points">
              <mxPoint x="1030" y="1150" />
            </Array>
          </mxGeometry>
        </mxCell>
        <mxCell id="SLl3Hjy-PF9EofsxqTcr-209" value="index" style="edgeLabel;html=1;align=center;verticalAlign=middle;resizable=0;points=[];" parent="SLl3Hjy-PF9EofsxqTcr-207" vertex="1" connectable="0">
          <mxGeometry x="-0.0543" y="-1" relative="1" as="geometry">
            <mxPoint x="-8" y="-9" as="offset" />
          </mxGeometry>
        </mxCell>
        <mxCell id="SLl3Hjy-PF9EofsxqTcr-249" value="" style="html=1;verticalAlign=bottom;endArrow=open;dashed=1;endSize=8;edgeStyle=elbowEdgeStyle;elbow=vertical;curved=0;rounded=0;" parent="1" source="SLl3Hjy-PF9EofsxqTcr-246" edge="1" target="SLl3Hjy-PF9EofsxqTcr-144">
          <mxGeometry relative="1" as="geometry">
            <mxPoint x="882.5" y="2530" as="targetPoint" />
            <Array as="points">
              <mxPoint x="1000" y="2530" />
            </Array>
          </mxGeometry>
        </mxCell>
        <mxCell id="SLl3Hjy-PF9EofsxqTcr-250" value="index" style="edgeLabel;html=1;align=center;verticalAlign=middle;resizable=0;points=[];" parent="SLl3Hjy-PF9EofsxqTcr-249" vertex="1" connectable="0">
          <mxGeometry x="-0.0543" y="-1" relative="1" as="geometry">
            <mxPoint x="-8" y="-9" as="offset" />
          </mxGeometry>
        </mxCell>
        <mxCell id="SLl3Hjy-PF9EofsxqTcr-248" value="FindIndex()" style="html=1;verticalAlign=bottom;endArrow=block;edgeStyle=elbowEdgeStyle;elbow=vertical;curved=0;rounded=0;" parent="1" target="SLl3Hjy-PF9EofsxqTcr-246" edge="1" source="SLl3Hjy-PF9EofsxqTcr-144">
          <mxGeometry x="-0.0014" relative="1" as="geometry">
            <mxPoint x="882.5" y="2480" as="sourcePoint" />
            <Array as="points">
              <mxPoint x="990" y="2470" />
              <mxPoint x="952.5" y="2480" />
            </Array>
            <mxPoint as="offset" />
          </mxGeometry>
        </mxCell>
        <mxCell id="EvKE3HRrCoH5kTLzTVeY-141" value="Add(u)" style="html=1;verticalAlign=bottom;endArrow=block;edgeStyle=elbowEdgeStyle;elbow=vertical;curved=0;rounded=0;" edge="1" parent="1" source="EvKE3HRrCoH5kTLzTVeY-134" target="EvKE3HRrCoH5kTLzTVeY-130">
          <mxGeometry x="0.0011" relative="1" as="geometry">
            <mxPoint x="987.5" y="5455" as="sourcePoint" />
            <Array as="points">
              <mxPoint x="1000" y="5470" />
              <mxPoint x="1040" y="5470" />
              <mxPoint x="947.5" y="5470" />
            </Array>
            <mxPoint as="offset" />
          </mxGeometry>
        </mxCell>
        <mxCell id="EvKE3HRrCoH5kTLzTVeY-142" value="" style="html=1;verticalAlign=bottom;endArrow=open;dashed=1;endSize=8;edgeStyle=elbowEdgeStyle;elbow=vertical;curved=0;rounded=0;" edge="1" parent="1" source="EvKE3HRrCoH5kTLzTVeY-130" target="EvKE3HRrCoH5kTLzTVeY-134">
          <mxGeometry relative="1" as="geometry">
            <mxPoint x="987.5" y="5530.1" as="targetPoint" />
            <Array as="points">
              <mxPoint x="1020" y="5530" />
            </Array>
          </mxGeometry>
        </mxCell>
        <mxCell id="EvKE3HRrCoH5kTLzTVeY-127" value="FindIndex()" style="html=1;verticalAlign=bottom;endArrow=block;edgeStyle=elbowEdgeStyle;elbow=vertical;curved=0;rounded=0;" edge="1" parent="1" target="EvKE3HRrCoH5kTLzTVeY-125" source="EvKE3HRrCoH5kTLzTVeY-117">
          <mxGeometry x="-0.0014" relative="1" as="geometry">
            <mxPoint x="1000" y="5930" as="sourcePoint" />
            <Array as="points">
              <mxPoint x="1010" y="5930" />
              <mxPoint x="980" y="5940" />
            </Array>
            <mxPoint as="offset" />
          </mxGeometry>
        </mxCell>
        <mxCell id="EvKE3HRrCoH5kTLzTVeY-128" value="" style="html=1;verticalAlign=bottom;endArrow=open;dashed=1;endSize=8;edgeStyle=elbowEdgeStyle;elbow=vertical;curved=0;rounded=0;" edge="1" parent="1" source="EvKE3HRrCoH5kTLzTVeY-125" target="EvKE3HRrCoH5kTLzTVeY-117">
          <mxGeometry relative="1" as="geometry">
            <mxPoint x="877.5" y="5990" as="targetPoint" />
            <Array as="points">
              <mxPoint x="1050" y="5990" />
              <mxPoint x="957.5" y="5990" />
            </Array>
          </mxGeometry>
        </mxCell>
        <mxCell id="EvKE3HRrCoH5kTLzTVeY-129" value="index" style="edgeLabel;html=1;align=center;verticalAlign=middle;resizable=0;points=[];" vertex="1" connectable="0" parent="EvKE3HRrCoH5kTLzTVeY-128">
          <mxGeometry x="-0.0543" y="-1" relative="1" as="geometry">
            <mxPoint x="-8" y="-9" as="offset" />
          </mxGeometry>
        </mxCell>
      </root>
    </mxGraphModel>
  </diagram>
</mxfile>
